<svg width="29" height="29" viewBox="0 0 29 29" fill="none" xmlns="http://www.w3.org/2000/svg">
<g clip-path="url(#clip0_7_481)">
<path d="M16.3126 29C16.1523 29 15.9987 28.9364 15.8854 28.8231C15.7721 28.7098 15.7084 28.5561 15.7084 28.3958V1.46693L3.62508 5.86164V28.3958C3.62508 28.5561 3.56143 28.7098 3.44813 28.8231C3.33482 28.9364 3.18115 29 3.02091 29C2.86068 29 2.70701 28.9364 2.5937 28.8231C2.4804 28.7098 2.41675 28.5561 2.41675 28.3958V5.43751C2.41671 5.31349 2.45484 5.19247 2.52596 5.09087C2.59708 4.98926 2.69775 4.91201 2.81429 4.8696L16.106 0.0362636C16.1972 0.00304149 16.2952 -0.00767997 16.3915 0.00500818C16.4878 0.0176963 16.5796 0.05342 16.6592 0.10915C16.7388 0.164881 16.8037 0.238974 16.8485 0.325149C16.8934 0.411324 16.9168 0.50704 16.9167 0.60418V28.3958C16.9167 28.5561 16.8531 28.7098 16.7398 28.8231C16.6265 28.9364 16.4728 29 16.3126 29ZM27.1876 29C27.0273 29 26.8737 28.9364 26.7604 28.8231C26.6471 28.7098 26.5834 28.5561 26.5834 28.3958V11.8779L18.4912 8.41001C18.3438 8.34704 18.2274 8.22809 18.1677 8.07932C18.108 7.93055 18.1098 7.76416 18.1728 7.61674C18.2358 7.46933 18.3547 7.35296 18.5035 7.29325C18.6523 7.23354 18.8187 7.23537 18.9661 7.29835L27.4244 10.9233C27.5334 10.9698 27.6263 11.0472 27.6916 11.1461C27.7569 11.2449 27.7918 11.3607 27.7917 11.4792V28.3958C27.7917 28.5561 27.7281 28.7098 27.6148 28.8231C27.5015 28.9364 27.3478 29 27.1876 29Z" fill="#8B8787"/>
<path d="M6.64583 10.875C6.4856 10.875 6.33193 10.8113 6.21862 10.698C6.10532 10.5847 6.04167 10.4311 6.04167 10.2708V7.85417C6.04167 7.69393 6.10532 7.54026 6.21862 7.42696C6.33193 7.31365 6.4856 7.25 6.64583 7.25C6.80607 7.25 6.95974 7.31365 7.07304 7.42696C7.18635 7.54026 7.25 7.69393 7.25 7.85417V10.2708C7.25 10.4311 7.18635 10.5847 7.07304 10.698C6.95974 10.8113 6.80607 10.875 6.64583 10.875ZM12.6875 10.875C12.5273 10.875 12.3736 10.8113 12.2603 10.698C12.147 10.5847 12.0833 10.4311 12.0833 10.2708V7.85417C12.0833 7.69393 12.147 7.54026 12.2603 7.42696C12.3736 7.31365 12.5273 7.25 12.6875 7.25C12.8477 7.25 13.0014 7.31365 13.1147 7.42696C13.228 7.54026 13.2917 7.69393 13.2917 7.85417V10.2708C13.2917 10.4311 13.228 10.5847 13.1147 10.698C13.0014 10.8113 12.8477 10.875 12.6875 10.875ZM6.64583 18.125C6.4856 18.125 6.33193 18.0613 6.21862 17.948C6.10532 17.8347 6.04167 17.6811 6.04167 17.5208V15.1042C6.04167 14.9439 6.10532 14.7903 6.21862 14.677C6.33193 14.5637 6.4856 14.5 6.64583 14.5C6.80607 14.5 6.95974 14.5637 7.07304 14.677C7.18635 14.7903 7.25 14.9439 7.25 15.1042V17.5208C7.25 17.6811 7.18635 17.8347 7.07304 17.948C6.95974 18.0613 6.80607 18.125 6.64583 18.125ZM12.6875 18.125C12.5273 18.125 12.3736 18.0613 12.2603 17.948C12.147 17.8347 12.0833 17.6811 12.0833 17.5208V15.1042C12.0833 14.9439 12.147 14.7903 12.2603 14.677C12.3736 14.5637 12.5273 14.5 12.6875 14.5C12.8477 14.5 13.0014 14.5637 13.1147 14.677C13.228 14.7903 13.2917 14.9439 13.2917 15.1042V17.5208C13.2917 17.6811 13.228 17.8347 13.1147 17.948C13.0014 18.0613 12.8477 18.125 12.6875 18.125ZM6.64583 25.375C6.4856 25.375 6.33193 25.3113 6.21862 25.198C6.10532 25.0847 6.04167 24.9311 6.04167 24.7708V22.3542C6.04167 22.1939 6.10532 22.0403 6.21862 21.927C6.33193 21.8137 6.4856 21.75 6.64583 21.75C6.80607 21.75 6.95974 21.8137 7.07304 21.927C7.18635 22.0403 7.25 22.1939 7.25 22.3542V24.7708C7.25 24.9311 7.18635 25.0847 7.07304 25.198C6.95974 25.3113 6.80607 25.375 6.64583 25.375ZM12.6875 25.375C12.5273 25.375 12.3736 25.3113 12.2603 25.198C12.147 25.0847 12.0833 24.9311 12.0833 24.7708V22.3542C12.0833 22.1939 12.147 22.0403 12.2603 21.927C12.3736 21.8137 12.5273 21.75 12.6875 21.75C12.8477 21.75 13.0014 21.8137 13.1147 21.927C13.228 22.0403 13.2917 22.1939 13.2917 22.3542V24.7708C13.2917 24.9311 13.228 25.0847 13.1147 25.198C13.0014 25.3113 12.8477 25.375 12.6875 25.375ZM19.9375 18.125C19.7773 18.125 19.6236 18.0613 19.5103 17.948C19.397 17.8347 19.3333 17.6811 19.3333 17.5208V15.1042C19.3333 14.9439 19.397 14.7903 19.5103 14.677C19.6236 14.5637 19.7773 14.5 19.9375 14.5C20.0977 14.5 20.2514 14.5637 20.3647 14.677C20.478 14.7903 20.5417 14.9439 20.5417 15.1042V17.5208C20.5417 17.6811 20.478 17.8347 20.3647 17.948C20.2514 18.0613 20.0977 18.125 19.9375 18.125ZM23.5625 18.125C23.4023 18.125 23.2486 18.0613 23.1353 17.948C23.022 17.8347 22.9583 17.6811 22.9583 17.5208V15.1042C22.9583 14.9439 23.022 14.7903 23.1353 14.677C23.2486 14.5637 23.4023 14.5 23.5625 14.5C23.7227 14.5 23.8764 14.5637 23.9897 14.677C24.103 14.7903 24.1667 14.9439 24.1667 15.1042V17.5208C24.1667 17.6811 24.103 17.8347 23.9897 17.948C23.8764 18.0613 23.7227 18.125 23.5625 18.125ZM19.9375 25.375C19.7773 25.375 19.6236 25.3113 19.5103 25.198C19.397 25.0847 19.3333 24.9311 19.3333 24.7708V22.3542C19.3333 22.1939 19.397 22.0403 19.5103 21.927C19.6236 21.8137 19.7773 21.75 19.9375 21.75C20.0977 21.75 20.2514 21.8137 20.3647 21.927C20.478 22.0403 20.5417 22.1939 20.5417 22.3542V24.7708C20.5417 24.9311 20.478 25.0847 20.3647 25.198C20.2514 25.3113 20.0977 25.375 19.9375 25.375ZM23.5625 25.375C23.4023 25.375 23.2486 25.3113 23.1353 25.198C23.022 25.0847 22.9583 24.9311 22.9583 24.7708V22.3542C22.9583 22.1939 23.022 22.0403 23.1353 21.927C23.2486 21.8137 23.4023 21.75 23.5625 21.75C23.7227 21.75 23.8764 21.8137 23.9897 21.927C24.103 22.0403 24.1667 22.1939 24.1667 22.3542V24.7708C24.1667 24.9311 24.103 25.0847 23.9897 25.198C23.8764 25.3113 23.7227 25.375 23.5625 25.375ZM28.3958 29H0.604167C0.443932 29 0.29026 28.9363 0.176956 28.823C0.0636531 28.7097 0 28.5561 0 28.3958C0 28.2356 0.0636531 28.0819 0.176956 27.9686C0.29026 27.8553 0.443932 27.7917 0.604167 27.7917H28.3958C28.5561 27.7917 28.7097 27.8553 28.823 27.9686C28.9363 28.0819 29 28.2356 29 28.3958C29 28.5561 28.9363 28.7097 28.823 28.823C28.7097 28.9363 28.5561 29 28.3958 29Z" fill="#8B8787"/>
</g>
<defs>
<clipPath id="clip0_7_481">
<rect width="29" height="29" fill="white"/>
</clipPath>
</defs>
</svg>
