<svg width="38" height="38" viewBox="0 0 38 38" fill="none" xmlns="http://www.w3.org/2000/svg">
<path d="M2.375 26.7188C2.375 26.8762 2.43756 27.0272 2.54891 27.1386C2.66026 27.2499 2.81128 27.3125 2.96875 27.3125C3.12622 27.3125 3.27724 27.2499 3.38859 27.1386C3.49994 27.0272 3.5625 26.8762 3.5625 26.7188V11.875H21.375V16.0312C21.375 16.1887 21.4376 16.3397 21.5489 16.4511C21.6603 16.5624 21.8113 16.625 21.9688 16.625C22.1262 16.625 22.2772 16.5624 22.3886 16.4511C22.4999 16.3397 22.5625 16.1887 22.5625 16.0312V11.875H23.1562C23.3137 11.875 23.4647 11.8124 23.5761 11.7011C23.6874 11.5897 23.75 11.4387 23.75 11.2812V8.90625C23.75 8.74878 23.6874 8.59775 23.5761 8.48641C23.4647 8.37506 23.3137 8.3125 23.1562 8.3125H16.9735L16.625 4.10697C16.6126 3.95819 16.5446 3.81954 16.4346 3.71863C16.3246 3.61773 16.1805 3.56199 16.0312 3.5625H14.25V2.96875C14.25 2.49633 14.0623 2.04327 13.7283 1.70922C13.3942 1.37517 12.9412 1.1875 12.4688 1.1875C11.9963 1.1875 11.5433 1.37517 11.2092 1.70922C10.8752 2.04327 10.6875 2.49633 10.6875 2.96875V3.5625H8.90625C8.75696 3.56199 8.61295 3.61773 8.50291 3.71863C8.39288 3.81954 8.32489 3.95819 8.3125 4.10697L7.76625 10.6875H2.375V9.5H6.13522C6.29269 9.5 6.44371 9.43744 6.55506 9.32609C6.66641 9.21474 6.72897 9.06372 6.72897 8.90625C6.72897 8.74878 6.66641 8.59775 6.55506 8.48641C6.44371 8.37506 6.29269 8.3125 6.13522 8.3125H1.78125C1.62378 8.3125 1.47276 8.37506 1.36141 8.48641C1.25006 8.59775 1.1875 8.74878 1.1875 8.90625V11.2812C1.1875 11.4387 1.25006 11.5897 1.36141 11.7011C1.47276 11.8124 1.62378 11.875 1.78125 11.875H2.375V26.7188ZM22.5625 9.5V10.6875H17.1713L17.0721 9.5H22.5625ZM11.875 2.96875C11.875 2.81128 11.9376 2.66026 12.0489 2.54891C12.1603 2.43756 12.3113 2.375 12.4688 2.375C12.6262 2.375 12.7772 2.43756 12.8886 2.54891C12.9999 2.66026 13.0625 2.81128 13.0625 2.96875V3.5625H11.875V2.96875ZM9.4525 4.75H10.6875V6.53125C10.6875 6.68872 10.7501 6.83975 10.8614 6.95109C10.9728 7.06244 11.1238 7.125 11.2812 7.125C11.4387 7.125 11.5897 7.06244 11.7011 6.95109C11.8124 6.83975 11.875 6.68872 11.875 6.53125V4.75H13.0625V6.53125C13.0625 6.68872 13.1251 6.83975 13.2364 6.95109C13.3478 7.06244 13.4988 7.125 13.6562 7.125C13.8137 7.125 13.9647 7.06244 14.0761 6.95109C14.1874 6.83975 14.25 6.68872 14.25 6.53125V4.75H15.485L15.9796 10.6875H8.95791L9.4525 4.75Z" fill="#8B8787"/>
<path d="M20.1875 16.625C20.1875 16.4675 20.1249 16.3165 20.0136 16.2052C19.9022 16.0938 19.7512 16.0312 19.5938 16.0312H5.34375C5.18628 16.0312 5.03526 16.0938 4.92391 16.2052C4.81256 16.3165 4.75 16.4675 4.75 16.625V21.375C4.75 21.5325 4.81256 21.6835 4.92391 21.7948C5.03526 21.9062 5.18628 21.9688 5.34375 21.9688H14.8438C15.0012 21.9688 15.1522 21.9062 15.2636 21.7948C15.3749 21.6835 15.4375 21.5325 15.4375 21.375V17.2188H19V20.7812H17.2188C17.0613 20.7812 16.9103 20.8438 16.7989 20.9552C16.6876 21.0665 16.625 21.2175 16.625 21.375C16.625 21.5325 16.6876 21.6835 16.7989 21.7948C16.9103 21.9062 17.0613 21.9688 17.2188 21.9688H19.5938C19.7512 21.9688 19.9022 21.9062 20.0136 21.7948C20.1249 21.6835 20.1875 21.5325 20.1875 21.375V16.625ZM5.9375 17.2188H9.5V20.7812H5.9375V17.2188ZM14.25 20.7812H10.6875V17.2188H14.25V20.7812ZM19.5938 26.7188C19.7512 26.7188 19.9022 26.6562 20.0136 26.5448C20.1249 26.4335 20.1875 26.2825 20.1875 26.125V23.75C20.1875 23.5925 20.1249 23.4415 20.0136 23.3302C19.9022 23.2188 19.7512 23.1562 19.5938 23.1562H5.34375C5.18628 23.1562 5.03526 23.2188 4.92391 23.3302C4.81256 23.4415 4.75 23.5925 4.75 23.75V26.125C4.75 26.2825 4.81256 26.4335 4.92391 26.5448C5.03526 26.6562 5.18628 26.7188 5.34375 26.7188H19.5938ZM19 25.5312H17.8125V24.3438H19V25.5312ZM5.9375 24.3438H7.125V25.5312H5.9375V24.3438ZM8.3125 24.3438H9.5V25.5312H8.3125V24.3438ZM10.6875 24.3438H11.875V25.5312H10.6875V24.3438ZM13.0625 24.3438H14.25V25.5312H13.0625V24.3438ZM15.4375 24.3438H16.625V25.5312H15.4375V24.3438ZM17.8125 14.8438C17.97 14.8438 18.121 14.7812 18.2323 14.6698C18.3437 14.5585 18.4062 14.4075 18.4062 14.25C18.4062 14.0925 18.3437 13.9415 18.2323 13.8302C18.121 13.7188 17.97 13.6562 17.8125 13.6562H7.125C6.96753 13.6562 6.81651 13.7188 6.70516 13.8302C6.59381 13.9415 6.53125 14.0925 6.53125 14.25C6.53125 14.4075 6.59381 14.5585 6.70516 14.6698C6.81651 14.7812 6.96753 14.8438 7.125 14.8438H17.8125ZM8.90625 28.5C8.74878 28.5 8.59776 28.5626 8.48641 28.6739C8.37506 28.7853 8.3125 28.9363 8.3125 29.0938C8.3125 29.2512 8.37506 29.4022 8.48641 29.5136C8.59776 29.6249 8.74878 29.6875 8.90625 29.6875H16.0312C16.1887 29.6875 16.3397 29.6249 16.4511 29.5136C16.5624 29.4022 16.625 29.2512 16.625 29.0938C16.625 28.9363 16.5624 28.7853 16.4511 28.6739C16.3397 28.5626 16.1887 28.5 16.0312 28.5H8.90625Z" fill="#8B8787"/>
<path d="M36.2188 22.5625H33.7345C33.8048 22.3723 33.8418 22.1715 33.8438 21.9688C33.8428 21.6281 33.7442 21.2948 33.5597 21.0084C33.3751 20.7221 33.1122 20.4947 32.8023 20.3532L34.8852 13.0625H36.2188C36.3762 13.0625 36.5272 12.9999 36.6386 12.8886C36.7499 12.7772 36.8125 12.6262 36.8125 12.4688C36.8125 12.3113 36.7499 12.1603 36.6386 12.0489C36.5272 11.9376 36.3762 11.875 36.2188 11.875H34.4375C34.3085 11.8751 34.1831 11.9171 34.0802 11.9948C33.9772 12.0724 33.9024 12.1815 33.8669 12.3055L32.9715 15.4375H24.9375C24.8472 15.4375 24.7582 15.4581 24.6771 15.4977C24.596 15.5373 24.525 15.5948 24.4694 15.666C24.4139 15.7371 24.3753 15.82 24.3566 15.9083C24.3379 15.9966 24.3396 16.088 24.3616 16.1755L25.5491 20.9255C25.5812 21.0539 25.6554 21.1679 25.7597 21.2493C25.8641 21.3308 25.9926 21.375 26.125 21.375H26.2342C26.0886 21.7574 26.0886 22.1801 26.2342 22.5625H22.5625V18.4062C22.5625 18.2488 22.4999 18.0978 22.3886 17.9864C22.2772 17.8751 22.1262 17.8125 21.9688 17.8125C21.8113 17.8125 21.6603 17.8751 21.5489 17.9864C21.4376 18.0978 21.375 18.2488 21.375 18.4062V35.625H14.8438V32.0625H17.2188V33.8438C17.2188 34.0012 17.2813 34.1522 17.3927 34.2636C17.504 34.3749 17.655 34.4375 17.8125 34.4375C17.97 34.4375 18.121 34.3749 18.2323 34.2636C18.3437 34.1522 18.4062 34.0012 18.4062 33.8438V31.4688C18.4062 31.3113 18.3437 31.1603 18.2323 31.0489C18.121 30.9376 17.97 30.875 17.8125 30.875H7.125C6.96753 30.875 6.8165 30.9376 6.70516 31.0489C6.59381 31.1603 6.53125 31.3113 6.53125 31.4688V35.625H3.5625V29.0938C3.5625 28.9363 3.49994 28.7853 3.38859 28.6739C3.27724 28.5626 3.12622 28.5 2.96875 28.5C2.81128 28.5 2.66026 28.5626 2.54891 28.6739C2.43756 28.7853 2.375 28.9363 2.375 29.0938V36.2188C2.375 36.3762 2.43756 36.5272 2.54891 36.6386C2.66026 36.7499 2.81128 36.8125 2.96875 36.8125H21.9688C22.1262 36.8125 22.2772 36.7499 22.3886 36.6386C22.4999 36.5272 22.5625 36.3762 22.5625 36.2188V34.4375H33.25V35.625H24.3438C24.1863 35.625 24.0353 35.6876 23.9239 35.7989C23.8126 35.9103 23.75 36.0613 23.75 36.2188C23.75 36.3762 23.8126 36.5272 23.9239 36.6386C24.0353 36.7499 24.1863 36.8125 24.3438 36.8125H33.8438C34.0012 36.8125 34.1522 36.7499 34.2636 36.6386C34.3749 36.5272 34.4375 36.3762 34.4375 36.2188V33.8438C34.4375 33.6863 34.3749 33.5353 34.2636 33.4239C34.1522 33.3126 34.0012 33.25 33.8438 33.25H31.7175L34.2623 26.125H36.2188C36.3762 26.125 36.5272 26.0624 36.6386 25.9511C36.7499 25.8397 36.8125 25.6887 36.8125 25.5312V23.1562C36.8125 22.9988 36.7499 22.8478 36.6386 22.7364C36.5272 22.6251 36.3762 22.5625 36.2188 22.5625ZM7.71875 32.0625H10.0938V35.625H7.71875V32.0625ZM11.2812 32.0625H13.6562V35.625H11.2812V32.0625ZM29.6875 19V20.1875H28.5V19H29.6875ZM28.5 17.8125V16.625H29.6875V17.8125H28.5ZM30.875 20.1875V19H31.9538L31.6148 20.1875H30.875ZM27.3125 20.1875H26.5887L26.2918 19H27.3125V20.1875ZM30.3905 21.375C30.2448 21.7574 30.2448 22.1801 30.3905 22.5625H29.5783C29.7239 22.1801 29.7239 21.7574 29.5783 21.375H30.3905ZM31.4688 21.9688C31.4688 21.8513 31.5036 21.7365 31.5688 21.6389C31.6341 21.5412 31.7268 21.4651 31.8353 21.4202C31.9438 21.3753 32.0632 21.3635 32.1783 21.3864C32.2935 21.4093 32.3993 21.4659 32.4823 21.5489C32.5654 21.6319 32.6219 21.7377 32.6448 21.8529C32.6678 21.9681 32.656 22.0875 32.6111 22.196C32.5661 22.3045 32.49 22.3972 32.3924 22.4624C32.2947 22.5277 32.1799 22.5625 32.0625 22.5625C31.905 22.5625 31.754 22.4999 31.6427 22.3886C31.5313 22.2772 31.4688 22.1262 31.4688 21.9688ZM32.2929 17.8125H30.875V16.625H32.6325L32.2929 17.8125ZM27.3125 16.625V17.8125H25.995L25.6981 16.625H27.3125ZM27.3125 21.9688C27.3125 21.8513 27.3473 21.7365 27.4126 21.6389C27.4778 21.5412 27.5705 21.4651 27.679 21.4202C27.7875 21.3753 27.9069 21.3635 28.0221 21.3864C28.1373 21.4093 28.2431 21.4659 28.3261 21.5489C28.4091 21.6319 28.4657 21.7377 28.4886 21.8529C28.5115 21.9681 28.4997 22.0875 28.4548 22.196C28.4099 22.3045 28.3338 22.3972 28.2361 22.4624C28.1385 22.5277 28.0237 22.5625 27.9062 22.5625C27.7488 22.5625 27.5978 22.4999 27.4864 22.3886C27.3751 22.2772 27.3125 22.1262 27.3125 21.9688ZM24.9375 30.875H22.5625V28.5H24.9375V30.875ZM35.625 24.9375H24.3438C24.1863 24.9375 24.0353 25.0001 23.9239 25.1114C23.8126 25.2228 23.75 25.3738 23.75 25.5312C23.75 25.6887 23.8126 25.8397 23.9239 25.9511C24.0353 26.0624 24.1863 26.125 24.3438 26.125H33.0012L30.4594 33.25H22.5625V32.0625H29.0938C29.2512 32.0625 29.4022 31.9999 29.5136 31.8886C29.6249 31.7772 29.6875 31.6262 29.6875 31.4688V27.9062C29.6875 27.7488 29.6249 27.5978 29.5136 27.4864C29.4022 27.3751 29.2512 27.3125 29.0938 27.3125H22.5625V23.75H35.625V24.9375ZM28.5 28.5V30.875H26.125V28.5H28.5Z" fill="#8B8787"/>
</svg>
