<svg width="27" height="29" viewBox="0 0 27 29" fill="none" xmlns="http://www.w3.org/2000/svg">
<path d="M13.5001 15.7035C14.633 15.7035 15.5547 14.7813 15.5546 13.6481C15.5546 12.515 14.633 11.5929 13.5001 11.5929C12.3668 11.5929 11.4449 12.515 11.4449 13.6481C11.4449 14.7814 12.3668 15.7035 13.5001 15.7035ZM13.5001 12.5283C14.1172 12.5283 14.6192 13.0306 14.619 13.6481C14.619 14.2658 14.117 14.768 13.5001 14.768C12.8827 14.768 12.3803 14.2657 12.3803 13.6481C12.3803 13.0306 12.8827 12.5283 13.5001 12.5283ZM25.5312 11.8929L24.6168 12.0902C24.6848 12.4065 24.7393 12.7256 24.7802 13.0465L25.7085 12.9283C25.6641 12.5808 25.6049 12.2354 25.5312 11.8929ZM25.8074 14.499C25.8073 14.3239 25.8036 14.1488 25.7963 13.9739L24.8617 14.0136C24.8685 14.1747 24.8718 14.3368 24.8721 14.4992C24.8721 14.6615 24.8689 14.8231 24.8619 14.9839L25.7966 15.0236C25.8038 14.85 25.8074 14.675 25.8074 14.499ZM25.7085 16.0696L24.7804 15.9516C24.7397 16.2724 24.6851 16.5913 24.6169 16.9074L25.5313 17.105C25.6051 16.7626 25.6643 16.4171 25.7085 16.0696ZM18.2431 3.14101C17.92 3.00582 17.5914 2.88444 17.2581 2.7772L16.9715 3.66765C17.2795 3.76672 17.583 3.87901 17.8812 4.00421L18.2431 3.14101ZM19.6001 4.90247L20.102 4.11268C19.954 4.01902 19.8042 3.92837 19.6526 3.8408C19.5009 3.75353 19.3475 3.66931 19.1924 3.58818L18.7596 4.41729C18.9031 4.49242 19.0451 4.57039 19.1856 4.65116C19.3255 4.73194 19.4638 4.81573 19.6001 4.90247ZM21.7715 5.38312C21.512 5.14788 21.2424 4.92394 20.9636 4.71193L20.3972 5.45664C20.6548 5.65228 20.9038 5.859 21.1435 6.07624L21.7715 5.38312ZM10.0263 3.6685L9.74012 2.77805C9.40674 2.88528 9.07811 3.00676 8.75514 3.14214L9.11679 4.00506C9.41499 3.87984 9.71845 3.76755 10.0263 3.6685ZM7.8136 4.65189C7.95345 4.57099 8.09505 4.49314 8.23829 4.41842L7.80545 3.58886C7.65038 3.67004 7.49699 3.75435 7.34535 3.84176C7.19382 3.92942 7.04414 4.02026 6.89642 4.11421L7.39797 4.90361C7.53475 4.81683 7.67333 4.7329 7.8136 4.65189ZM6.60098 5.45778L6.03435 4.71307C5.7558 4.92513 5.48638 5.14893 5.22682 5.38386L5.85469 6.07743C6.09453 5.86036 6.34352 5.65363 6.60098 5.45778ZM2.38324 16.9098C2.3152 16.5935 2.26068 16.2744 2.21983 15.9535L1.29155 16.0717C1.33578 16.4172 1.39537 16.7655 1.46889 17.1067L2.38324 16.9098ZM1.19248 14.5012C1.19294 14.6771 1.19639 14.8521 1.20392 15.0258L2.13832 14.9861C2.12459 14.6627 2.12454 14.339 2.13815 14.0156L1.20347 13.9759C1.19611 14.15 1.19248 14.3247 1.19248 14.5012ZM2.38295 12.0923L1.46861 11.8949C1.39479 12.2373 1.33572 12.5827 1.29155 12.9302L2.21955 13.0484C2.26038 12.7275 2.3149 12.4085 2.38295 12.0923ZM8.75712 25.8586C9.08001 25.994 9.4086 26.1154 9.74199 26.2224L10.0285 25.332C9.72072 25.2327 9.41722 25.1206 9.11883 24.9958L8.75712 25.8586ZM7.39979 24.0972L6.89795 24.8869C7.04579 24.9808 7.1956 25.0715 7.34728 25.1591C7.49894 25.2464 7.65238 25.3305 7.80748 25.4115L8.24033 24.5824C8.0967 24.5075 7.95467 24.4295 7.81434 24.3486C7.6743 24.2679 7.53608 24.1841 7.39979 24.0972ZM5.22841 23.6169C5.48806 23.8519 5.75767 24.0757 6.0365 24.2877L6.60285 23.5434C6.34546 23.3475 6.09647 23.1408 5.85655 22.9239L5.22841 23.6169ZM20.3989 23.5418L20.9657 24.2865C21.2443 24.0744 21.5137 23.8506 21.7733 23.6157L21.1451 22.9221C20.9054 23.1393 20.6564 23.346 20.3989 23.5418ZM19.1864 24.3481C19.0464 24.4288 18.9048 24.5066 18.7617 24.5816L19.1944 25.4107C19.3497 25.3297 19.5033 25.2454 19.6549 25.1578C19.8063 25.0701 19.9559 24.9794 20.1036 24.8857L19.6022 24.0961C19.4652 24.1827 19.3266 24.2668 19.1864 24.3481ZM16.9736 25.331L17.2598 26.2219C17.5931 26.1144 17.9217 25.9927 18.2447 25.8573L17.8832 24.9945C17.5849 25.1197 17.2815 25.232 16.9736 25.331ZM13.0316 6.05794H13.967V8.55251H13.0316V6.05794ZM13.4999 5.32048C14.9669 5.32048 16.1602 4.1274 16.1602 2.6603C16.1602 1.19319 14.9669 0 13.4999 0C12.0329 0 10.8396 1.19308 10.8396 2.66018C10.8396 4.12729 12.033 5.32048 13.4999 5.32048ZM13.4999 0.935533C14.451 0.935533 15.2249 1.70924 15.2249 2.6603C15.2249 3.61152 14.451 4.38506 13.4999 4.38506C12.549 4.38506 11.7752 3.61146 11.7752 2.6603C11.7752 1.70924 12.549 0.935533 13.4999 0.935533ZM8.11368 11.931L5.9533 10.6836L6.42098 9.87365L8.58136 11.1209L8.11368 11.931ZM1.91646 10.8841C2.32013 11.1174 2.77802 11.2404 3.24423 11.2408C4.19268 11.2408 5.07633 10.731 5.55047 9.91018C6.28357 8.63996 5.84687 7.0099 4.57682 6.27589C4.17229 6.04276 3.71293 5.91917 3.24831 5.91917C2.29986 5.91917 1.41638 6.42916 0.94264 7.25C0.58722 7.8654 0.492857 8.58224 0.676713 9.26856C0.860568 9.95499 1.30095 10.5289 1.91646 10.8841ZM1.75277 7.71779C2.05988 7.18549 2.63308 6.85476 3.24814 6.85476C3.55043 6.85523 3.84729 6.93507 4.10902 7.08631C4.93246 7.56192 5.21538 8.61912 4.74022 9.44273C4.43284 9.97504 3.8598 10.3055 3.24429 10.3055C2.94232 10.3051 2.64576 10.2253 2.38431 10.0742C1.98511 9.84352 1.69964 9.47162 1.58041 9.02642C1.46119 8.5814 1.52236 8.11666 1.75277 7.71779ZM6.42205 19.1265L5.9542 18.3164L8.11476 17.0688L8.58255 17.8788L6.42205 19.1265ZM5.55002 19.0898C5.07599 18.269 4.1924 17.7592 3.24406 17.7592C2.77772 17.7597 2.31969 17.8827 1.91584 18.1159C0.645843 18.8493 0.208974 20.4795 0.942244 21.75C1.41599 22.5706 2.29958 23.0804 3.2482 23.0804C3.71454 23.0799 4.17257 22.9568 4.57642 22.7237C5.84642 21.9903 6.28317 20.3603 5.55002 19.0898ZM4.10874 21.9134C3.84713 22.0647 3.55034 22.1446 3.24814 22.145C2.63263 22.145 2.05971 21.8143 1.75249 21.2824C1.27705 20.4587 1.56019 19.4016 2.3838 18.926C2.64542 18.7749 2.94212 18.6951 3.24423 18.6947C3.85929 18.6947 4.4325 19.0251 4.73988 19.5574C5.21538 20.3812 4.93218 21.438 4.10874 21.9134ZM13.0316 20.4479H13.9672V22.9426H13.0316V20.4479ZM13.4995 23.6793C12.0325 23.6793 10.8392 24.8725 10.8392 26.3396C10.8392 27.8068 12.0326 28.9999 13.4994 28.9999H13.5004C14.2109 28.9999 14.8787 28.7233 15.3811 28.2208C15.8834 27.7183 16.1597 27.0501 16.1597 26.3396C16.1597 24.8732 14.9665 23.6798 13.4995 23.6793ZM14.7194 27.5597C14.3936 27.8852 13.9609 28.0648 13.5004 28.0648H13.4996C12.5486 28.0648 11.7747 27.291 11.7747 26.3398C11.7747 25.3886 12.5486 24.6149 13.4994 24.6149C14.4506 24.6153 15.2244 25.389 15.2243 26.3399C15.2243 26.8008 15.0451 27.2338 14.7194 27.5597ZM18.8842 17.0674L21.0446 18.3147L20.5769 19.1248L18.4166 17.8774L18.8842 17.0674ZM25.083 18.1162C24.6792 17.8829 24.2213 17.7599 23.755 17.7593C22.8068 17.7593 21.9233 18.2691 21.4488 19.0899C20.716 20.3607 21.1529 21.9907 22.4227 22.7239C22.8266 22.9574 23.2848 23.0805 23.7513 23.081H23.7517C24.6997 23.081 25.5831 22.571 26.057 21.7505C26.4123 21.1349 26.5067 20.4182 26.3227 19.7316C26.1387 19.045 25.6985 18.4712 25.083 18.1162ZM25.2469 21.2828C24.9396 21.8149 24.3667 22.1456 23.7519 22.1456H23.7516C23.4493 22.1451 23.1524 22.0652 22.8907 21.9139C22.0673 21.4384 21.7842 20.3813 22.2592 19.5578C22.5666 19.0256 23.1399 18.6949 23.7552 18.6949C24.0573 18.6954 24.3539 18.7753 24.6154 18.9266C25.0145 19.1568 25.3001 19.5289 25.4193 19.9738C25.5388 20.4188 25.4775 20.8836 25.2469 21.2828ZM20.5771 9.87376L21.0448 10.6838L18.8844 11.9311L18.4167 11.1212L20.5771 9.87376ZM21.4494 9.91092C21.9235 10.7315 22.8069 11.2413 23.7552 11.2413C24.2216 11.2408 24.6797 11.1177 25.0836 10.8845C25.6991 10.529 26.1393 9.95544 26.3231 9.26901C26.5072 8.5827 26.4126 7.86597 26.0572 7.25045C25.5838 6.42962 24.7003 5.91963 23.7519 5.91963C23.2854 5.92005 22.8272 6.04327 22.4234 6.27691C21.1532 7.01001 20.7163 8.63996 21.4494 9.91092ZM22.891 7.08705C23.1526 6.93557 23.4494 6.85562 23.7517 6.85521C24.3668 6.85521 24.9399 7.18594 25.2471 7.71813C25.4773 8.11717 25.5385 8.5819 25.4196 9.02693C25.3003 9.47178 25.0147 9.84369 24.6156 10.0741C24.354 10.2254 24.0572 10.3054 23.755 10.3058C23.1399 10.3058 22.5668 9.97509 22.2595 9.44324C21.7842 8.6194 22.0674 7.56249 22.891 7.08705Z" fill="#8B8787"/>
</svg>
