<svg width="29" height="29" viewBox="0 0 29 29" fill="none" xmlns="http://www.w3.org/2000/svg">
<g clip-path="url(#clip0_7_461)">
<path d="M5.70689 21.8128L3.29021 20.6045C2.99296 20.4583 2.62927 20.5767 2.4794 20.8752L1.27108 23.2919C1.12246 23.5903 1.24327 23.9528 1.54177 24.1027C1.62585 24.1446 1.71849 24.1665 1.81245 24.1667C2.03358 24.1667 2.24626 24.0447 2.35258 23.8332L3.29026 21.9567L5.16682 22.8944C5.46651 23.0418 5.82901 22.9234 5.97763 22.6237C6.1262 22.3252 6.00539 21.9627 5.70689 21.8128Z" fill="#8B8787"/>
<path d="M9.06492 26.5833C5.96311 26.5736 3.97785 23.8005 3.62136 21.0673C3.57667 20.735 3.2528 20.4981 2.94348 20.5465C2.61117 20.59 2.37917 20.8933 2.42148 21.2243C2.8468 24.4784 5.26467 27.7795 9.06005 27.7916H9.06248C9.39479 27.7916 9.66542 27.521 9.66667 27.1887C9.66786 26.8564 9.39717 26.5846 9.06492 26.5833ZM27.4569 4.89376C27.1585 4.74876 26.796 4.86595 26.6461 5.16445L25.7084 7.04101L23.8319 6.10332C23.5334 5.95713 23.1709 6.07551 23.0211 6.37401C22.8724 6.67244 22.9932 7.03495 23.2917 7.18482L25.7084 8.39313C25.7925 8.43508 25.8851 8.457 25.9791 8.45719C26.2002 8.45719 26.4129 8.33394 26.5192 8.12126L27.7276 5.70457C27.8762 5.40607 27.7554 5.04357 27.4569 4.89376Z" fill="#8B8787"/>
<path d="M26.5785 7.77318C26.1532 4.51912 23.7353 1.21799 19.9399 1.20587H19.9375C19.6052 1.20587 19.3346 1.47531 19.3333 1.80881C19.3321 2.14231 19.6028 2.41419 19.9351 2.41538C23.0381 2.42506 25.0221 5.19819 25.3798 7.93144C25.4197 8.23594 25.6795 8.45706 25.9779 8.45706C26.0045 8.45706 26.0311 8.45463 26.0565 8.451C26.3888 8.40756 26.6208 8.1043 26.5785 7.77318ZM18.7292 18.125C17.0919 18.125 15.7084 17.2949 15.7084 16.3125C15.7084 15.3301 17.0919 14.5 18.7292 14.5C20.3664 14.5 21.75 15.3301 21.75 16.3125C21.75 16.646 22.0207 16.9167 22.3542 16.9167C22.6877 16.9167 22.9584 16.646 22.9584 16.3125C22.9584 14.6184 21.1012 13.2917 18.7292 13.2917C16.3572 13.2917 14.5 14.6184 14.5 16.3125C14.5 18.0066 16.3572 19.3333 18.7292 19.3333C20.3665 19.3333 21.75 20.1634 21.75 21.1458C21.75 22.1282 20.3664 22.9583 18.7292 22.9583C17.0919 22.9583 15.7084 22.1282 15.7084 21.1458C15.7084 20.8123 15.4377 20.5416 15.1042 20.5416C14.7707 20.5416 14.5 20.8123 14.5 21.1458C14.5 22.8399 16.3572 24.1666 18.7292 24.1666C21.1011 24.1666 22.9584 22.8399 22.9584 21.1458C22.9583 19.4517 21.1011 18.125 18.7292 18.125Z" fill="#8B8787"/>
<path d="M18.7292 12.0833C18.3957 12.0833 18.125 12.354 18.125 12.6875V24.7708C18.125 25.1043 18.3957 25.375 18.7292 25.375C19.0627 25.375 19.3334 25.1043 19.3334 24.7708V12.6875C19.3333 12.354 19.0627 12.0833 18.7292 12.0833ZM9.0625 0C4.06481 0 0 4.06481 0 9.0625C0 14.0602 4.06481 18.125 9.0625 18.125C9.396 18.125 9.66669 17.8543 9.66669 17.5208C9.66669 17.1873 9.396 16.9166 9.0625 16.9166C4.73181 16.9166 1.20831 13.3931 1.20831 9.06244C1.20831 4.73176 4.73181 1.20831 9.0625 1.20831C13.3932 1.20831 16.9167 4.73181 16.9167 9.0625C16.9167 9.396 17.1874 9.66669 17.5209 9.66669C17.8544 9.66669 18.125 9.396 18.125 9.0625C18.125 4.06481 14.0602 0 9.0625 0Z" fill="#8B8787"/>
<path d="M18.7291 8.45831C13.0656 8.45831 8.45825 13.0657 8.45825 18.7291C8.45825 24.3926 13.0656 29 18.7291 29C24.3926 29 28.9999 24.3926 28.9999 18.7292C28.9999 13.0657 24.3925 8.45831 18.7291 8.45831ZM18.7291 27.7917C13.7314 27.7917 9.66657 23.7269 9.66657 18.7292C9.66657 13.7315 13.7314 9.66668 18.7291 9.66668C23.7268 9.66668 27.7916 13.7315 27.7916 18.7292C27.7916 23.7269 23.7267 27.7917 18.7291 27.7917Z" fill="#8B8787"/>
<path d="M9.06244 3.625C6.6905 3.625 4.83325 4.95175 4.83325 6.64581V11.4791C4.83325 13.1733 6.6905 14.5 9.06244 14.5C9.39594 14.5 9.66662 14.2293 9.66662 13.8958C9.66662 13.5623 9.39594 13.2916 9.06244 13.2916C7.42513 13.2916 6.04162 12.4615 6.04162 11.4791V6.64581C6.04162 5.66344 7.42518 4.83331 9.06244 4.83331C10.6997 4.83331 12.0833 5.66344 12.0833 6.64581C12.0833 6.97931 12.3539 7.25 12.6874 7.25C13.0209 7.25 13.2916 6.97931 13.2916 6.64581C13.2916 4.95175 11.4344 3.625 9.06244 3.625Z" fill="#8B8787"/>
<path d="M10.2708 7.25H4.22919C3.89569 7.25 3.625 7.52069 3.625 7.85419C3.625 8.18769 3.89569 8.45837 4.22919 8.45837H10.2709C10.6044 8.45837 10.8751 8.18769 10.8751 7.85419C10.8751 7.52069 10.6043 7.25 10.2708 7.25ZM10.2708 9.66669H4.22919C3.89569 9.66669 3.625 9.93737 3.625 10.2709C3.625 10.6044 3.89569 10.875 4.22919 10.875H10.2709C10.6044 10.875 10.8751 10.6043 10.8751 10.2708C10.8751 9.93731 10.6043 9.66669 10.2708 9.66669Z" fill="#8B8787"/>
</g>
<defs>
<clipPath id="clip0_7_461">
<rect width="29" height="29" fill="white"/>
</clipPath>
</defs>
</svg>
