<svg width="29" height="29" viewBox="0 0 29 29" fill="none" xmlns="http://www.w3.org/2000/svg">
<path d="M29 6.23047C29 5.44798 28.4681 4.78766 27.7471 4.59112C27.8265 4.39189 27.8673 4.17934 27.8672 3.96484C27.8672 3.18235 27.3353 2.52204 26.6142 2.32549C26.6937 2.12626 26.7345 1.91371 26.7344 1.69922C26.7344 0.76227 25.9721 0 25.0352 0H18.9293C17.6608 0 16.3793 0.302348 15.2209 0.875437L14.7061 1.13281H8.49609C8.2816 1.13274 8.06906 1.17351 7.86982 1.25295C7.67327 0.531855 7.01296 0 6.23047 0C5.44798 0 4.78766 0.531855 4.59112 1.25295C4.39188 1.17351 4.17934 1.13274 3.96484 1.13281C3.18235 1.13281 2.52204 1.66467 2.32549 2.38576C2.12625 2.30633 1.91371 2.26555 1.69922 2.26562C0.76227 2.26562 0 3.02789 0 3.96484V10.0707C0 12.4582 1.02723 14.0184 1.13281 14.2939V20.5039C1.13281 20.725 1.17575 20.9362 1.25295 21.1302C0.531855 21.3267 0 21.987 0 22.7695C0 23.552 0.531855 24.2123 1.25295 24.4089C1.17351 24.6081 1.13274 24.8207 1.13281 25.0352C1.13281 25.8176 1.66467 26.478 2.38576 26.6745C2.30633 26.8737 2.26555 27.0863 2.26562 27.3008C2.26562 28.2377 3.02789 29 3.96484 29H5.32983C5.64265 29 5.89623 28.7464 5.89623 28.4336C5.89623 28.1208 5.64265 27.8672 5.32983 27.8672H3.96484C3.65253 27.8672 3.39844 27.6131 3.39844 27.3008C3.39844 26.9885 3.65253 26.7344 3.96484 26.7344H5.09766C5.41048 26.7344 5.66406 26.4808 5.66406 26.168C5.66406 25.8551 5.41048 25.6016 5.09766 25.6016H2.83203C2.51971 25.6016 2.26562 25.3475 2.26562 25.0352C2.26562 24.7228 2.51971 24.4688 2.83203 24.4688H5.09766C5.41048 24.4688 5.66406 24.2152 5.66406 23.9023C5.66406 23.5895 5.41048 23.3359 5.09766 23.3359H1.69922C1.3869 23.3359 1.13281 23.0818 1.13281 22.7695C1.13281 22.4572 1.3869 22.2031 1.69922 22.2031H5.09766C5.41048 22.2031 5.66406 21.9495 5.66406 21.6367C5.66406 21.3239 5.41048 21.0703 5.09766 21.0703H2.83203C2.51971 21.0703 2.26562 20.8162 2.26562 20.5039C2.26562 20.1916 2.51971 19.9375 2.83203 19.9375H8.49609C8.80892 19.9375 9.0625 19.6839 9.0625 19.3711V18.8047H10.4898C11.844 18.8047 13.0559 19.5522 13.6527 20.7556C13.6996 20.8501 13.7719 20.9296 13.8616 20.9852C13.9513 21.0408 14.0547 21.0703 14.1602 21.0703H18.8047V26.168C18.8047 26.3666 18.8392 26.5571 18.9021 26.7344H15.293C15.205 26.7344 15.1183 26.7548 15.0397 26.7942L14.4074 27.1103C13.4066 27.6055 12.2987 27.8672 11.2035 27.8672H10.4163C10.1035 27.8672 9.84992 28.1208 9.84992 28.4336C9.84992 28.7464 10.1035 29 10.4163 29H11.2035C12.472 29 13.7535 28.6977 14.9119 28.1246L15.4267 27.8672H20.5039C20.7184 27.8673 20.9309 27.8265 21.1302 27.7471C21.3268 28.4681 21.987 29 22.7695 29C23.552 29 24.2123 28.4681 24.4089 27.7471C24.6081 27.8265 24.8207 27.8673 25.0352 27.8672C25.8176 27.8672 26.478 27.3353 26.6745 26.6142C26.8737 26.6937 27.0863 26.7344 27.3008 26.7344C28.2377 26.7344 29 25.9721 29 25.0352V18.2383C29 18.1522 28.9802 18.071 28.9459 17.9979C28.8356 17.0411 28.5575 16.0958 28.1246 15.2209L27.8672 14.7062V8.49609C27.8673 8.2816 27.8265 8.06906 27.7471 7.86982C28.4682 7.67327 29 7.01302 29 6.23047ZM7.92969 18.8047H2.83203C2.63345 18.8047 2.44291 18.8392 2.26562 18.9021V14.1602C2.26563 14.0722 2.24515 13.9855 2.20581 13.9069C2.07707 13.578 1.13281 12.1896 1.13281 10.0707V3.96484C1.13281 3.65253 1.3869 3.39844 1.69922 3.39844C2.01154 3.39844 2.26562 3.65253 2.26562 3.96484V5.09766C2.26562 5.41048 2.51921 5.66406 2.83203 5.66406C3.14486 5.66406 3.39844 5.41048 3.39844 5.09766V2.83203C3.39844 2.51971 3.65253 2.26562 3.96484 2.26562C4.27716 2.26562 4.53125 2.51971 4.53125 2.83203V5.09766C4.53125 5.41048 4.78483 5.66406 5.09766 5.66406C5.41048 5.66406 5.66406 5.41048 5.66406 5.09766V1.69922C5.66406 1.3869 5.91815 1.13281 6.23047 1.13281C6.54279 1.13281 6.79688 1.3869 6.79688 1.69922V5.09766C6.79688 5.41048 7.05046 5.66406 7.36328 5.66406C7.67611 5.66406 7.92969 5.41048 7.92969 5.09766V2.83203C7.92969 2.51971 8.18378 2.26562 8.49609 2.26562C8.80841 2.26562 9.0625 2.51971 9.0625 2.83203V8.49609C9.0625 8.80892 9.31608 9.0625 9.62891 9.0625H10.1953V10.4898C10.1953 11.8234 9.42953 13.065 8.24444 13.6527C8.14993 13.6996 8.07039 13.7719 8.01478 13.8616C7.95917 13.9513 7.9297 14.0547 7.92969 14.1602V18.8047ZM10.4898 17.6719H9.0625V14.4964C10.4687 13.6607 11.3281 12.1564 11.3281 10.4898V9.0625H14.5037C15.3393 10.4687 16.8436 11.3281 18.5102 11.3281H19.9375V14.5036C18.5313 15.3393 17.6719 16.8436 17.6719 18.5102V19.9375H14.4964C13.6607 18.5314 12.1564 17.6719 10.4898 17.6719ZM27.8672 25.0352C27.8672 25.3475 27.6131 25.6016 27.3008 25.6016C26.9885 25.6016 26.7344 25.3475 26.7344 25.0352V23.9023C26.7344 23.5895 26.4807 23.3359 26.168 23.3359C25.8552 23.3359 25.6016 23.5895 25.6016 23.9023V26.168C25.6016 26.4803 25.3475 26.7344 25.0352 26.7344C24.7228 26.7344 24.4688 26.4803 24.4688 26.168V23.9023C24.4688 23.5895 24.2151 23.3359 23.9023 23.3359C23.5896 23.3359 23.3359 23.5895 23.3359 23.9023V27.3008C23.3359 27.6131 23.0818 27.8672 22.7695 27.8672C22.4572 27.8672 22.2031 27.6131 22.2031 27.3008V23.9023C22.2031 23.5895 21.9495 23.3359 21.6367 23.3359C21.3239 23.3359 21.0703 23.5895 21.0703 23.9023V26.168C21.0703 26.4803 20.8162 26.7344 20.5039 26.7344C20.1916 26.7344 19.9375 26.4803 19.9375 26.168V20.5039C19.9375 20.1911 19.6839 19.9375 19.3711 19.9375H18.8047V18.5102C18.8047 17.156 19.5522 15.9441 20.7556 15.3473C20.8501 15.3004 20.9296 15.2281 20.9852 15.1384C21.0408 15.0488 21.0703 14.9453 21.0703 14.8398V10.1953H26.168C26.3666 10.1953 26.5571 10.1608 26.7344 10.0979V14.8398C26.7344 14.9277 26.7548 15.0145 26.7942 15.0931L27.1103 15.7254C27.6055 16.7263 27.8672 17.8342 27.8672 18.9293V25.0352ZM27.3008 6.79688H23.9023C23.5896 6.79688 23.3359 7.05046 23.3359 7.36328C23.3359 7.67611 23.5896 7.92969 23.9023 7.92969H26.168C26.4803 7.92969 26.7344 8.18378 26.7344 8.49609C26.7344 8.80841 26.4803 9.0625 26.168 9.0625H20.5039C20.1911 9.0625 19.9375 9.31608 19.9375 9.62891V10.1953H18.5102C17.1765 10.1953 15.935 9.42953 15.3473 8.24444C15.3004 8.14993 15.2281 8.07038 15.1384 8.01477C15.0488 7.95916 14.9453 7.92969 14.8398 7.92969H10.1953V2.83203C10.1953 2.63345 10.1608 2.44291 10.0979 2.26562H14.8398C14.9278 2.26564 15.0145 2.24516 15.0932 2.20581C15.4217 2.07729 16.8104 1.13281 18.9293 1.13281H25.0352C25.3475 1.13281 25.6016 1.3869 25.6016 1.69922C25.6016 2.01154 25.3475 2.26562 25.0352 2.26562H23.9023C23.5896 2.26562 23.3359 2.51921 23.3359 2.83203C23.3359 3.14486 23.5896 3.39844 23.9023 3.39844H26.168C26.4803 3.39844 26.7344 3.65253 26.7344 3.96484C26.7344 4.27716 26.4803 4.53125 26.168 4.53125H23.9023C23.5896 4.53125 23.3359 4.78483 23.3359 5.09766C23.3359 5.41048 23.5896 5.66406 23.9023 5.66406H27.3008C27.6131 5.66406 27.8672 5.91815 27.8672 6.23047C27.8672 6.54279 27.6131 6.79688 27.3008 6.79688Z" fill="#8B8787"/>
</svg>
