<svg width="38" height="38" viewBox="0 0 38 38" fill="none" xmlns="http://www.w3.org/2000/svg">
<path d="M33.1473 1.8533H29.4613C29.2198 1.85356 28.9883 1.9495 28.8176 2.12009C28.6468 2.29067 28.5508 2.52197 28.5505 2.76322V6.75909L19.9416 0.31111C19.6752 0.109294 19.35 6.10352e-05 19.0157 6.10352e-05C18.6813 6.10352e-05 18.3562 0.109294 18.0898 0.31111L1.13558 13.0097C0.547702 13.4538 0.157056 14.1101 0.0471743 14.8383C-0.0627079 15.5664 0.116895 16.3086 0.547578 16.9062L0.601728 16.9812C0.818698 17.2851 1.09529 17.5416 1.41468 17.7352C1.73406 17.9289 2.08954 18.0555 2.45947 18.1074C2.97185 18.1881 3.49662 18.1226 3.97337 17.9184V35.4197C3.97414 36.1038 4.24645 36.7596 4.73056 37.2434C5.21468 37.7271 5.87106 37.9992 6.55571 38H31.4757C32.1604 37.9992 32.8168 37.7271 33.3009 37.2434C33.785 36.7596 34.0573 36.1038 34.0581 35.4197V17.9189C34.3988 18.0658 34.7662 18.1412 35.1373 18.1403C35.2828 18.1402 35.428 18.1293 35.5719 18.1077C35.9419 18.0556 36.2974 17.9289 36.6168 17.7351C36.9362 17.5414 37.2128 17.2847 37.4297 16.9807L37.4836 16.9065C37.9143 16.3089 38.0939 15.5668 37.9841 14.8386C37.8742 14.1105 37.4836 13.4542 36.8958 13.01L34.0583 10.8845V2.76322C34.058 2.52193 33.962 2.2906 33.7912 2.12001C33.6204 1.94942 33.3888 1.8535 33.1473 1.8533ZM29.739 3.0408H32.8696V9.99406L29.739 7.64927V3.0408ZM32.8696 35.4197C32.8692 35.7889 32.7222 36.143 32.4609 36.4041C32.1996 36.6652 31.8453 36.8121 31.4757 36.8125H6.55571C6.18615 36.8121 5.83186 36.6652 5.57055 36.4041C5.30924 36.143 5.16226 35.7889 5.16185 35.4197V17.1245L18.8019 6.8578C18.8628 6.80963 18.9381 6.78343 19.0157 6.78343C19.0933 6.78343 19.1687 6.80963 19.2295 6.8578L32.8696 17.1245V35.4197ZM36.183 13.9599C36.5223 14.2163 36.7477 14.5951 36.8111 15.0153C36.8744 15.4356 36.7707 15.8639 36.5221 16.2088L36.4682 16.283C36.3416 16.457 36.1816 16.604 35.9975 16.7156C35.8135 16.8271 35.609 16.901 35.3961 16.9327C35.1832 16.9645 34.9661 16.9536 34.7574 16.9007C34.5488 16.8477 34.3527 16.7538 34.1808 16.6244L19.9446 5.90936C19.6777 5.70595 19.3514 5.59577 19.0157 5.59577C18.6801 5.59577 18.3537 5.70595 18.0869 5.90936L3.85066 16.625C3.68081 16.7583 3.48491 16.8545 3.27558 16.9076C3.06625 16.9607 2.84812 16.9694 2.63522 16.9332C2.4211 16.9056 2.21513 16.8336 2.03054 16.7217C1.84596 16.6098 1.68685 16.4606 1.56343 16.2836L1.50921 16.2089C1.26056 15.8641 1.15684 15.4357 1.22023 15.0155C1.28361 14.5952 1.50906 14.2164 1.84837 13.9601L18.8025 1.2617C18.8632 1.21384 18.9383 1.18781 19.0157 1.18781C19.0931 1.18781 19.1682 1.21384 19.2289 1.2617L36.183 13.9599ZM10.0921 25.4008C10.0921 27.1643 10.6155 28.8882 11.596 30.3545C12.5766 31.8208 13.9703 32.9636 15.6009 33.6385C17.2315 34.3133 19.0257 34.4899 20.7568 34.1458C22.4878 33.8018 24.0778 32.9526 25.3258 31.7056C26.5738 30.4586 27.4237 28.8699 27.768 27.1403C28.1123 25.4107 27.9356 23.6179 27.2602 21.9886C26.5848 20.3594 25.441 18.9669 23.9735 17.9871C22.506 17.0074 20.7807 16.4845 19.0157 16.4845C16.6498 16.4872 14.3816 17.4274 12.7087 19.099C11.0358 20.7705 10.0948 23.0369 10.0921 25.4008ZM19.0157 33.1297C17.1984 33.1313 15.4391 32.4906 14.049 31.3209C14.4618 30.3467 15.1534 29.5161 16.0371 28.9334C16.9207 28.3507 17.957 28.0418 19.0157 28.0456C20.0726 28.0499 21.1054 28.362 21.9875 28.9436C22.8697 29.5252 23.5631 30.3511 23.9829 31.3203C22.5928 32.4903 20.8333 33.1312 19.0157 33.1297ZM16.6442 24.266C16.6442 23.7973 16.7833 23.3392 17.0439 22.9495C17.3045 22.5598 17.6748 22.2561 18.1082 22.0767C18.5415 21.8974 19.0184 21.8505 19.4784 21.9419C19.9384 22.0333 20.361 22.259 20.6927 22.5904C21.0243 22.9218 21.2502 23.344 21.3417 23.8037C21.4332 24.2633 21.3862 24.7398 21.2067 25.1728C21.0272 25.6057 20.7233 25.9758 20.3333 26.2362C19.9433 26.4966 19.4848 26.6355 19.0157 26.6355C18.387 26.6348 17.7842 26.3849 17.3396 25.9407C16.895 25.4965 16.6449 24.8942 16.6442 24.266ZM26.7509 25.4008C26.7525 27.2494 26.0881 29.0368 24.8791 30.4361C24.0835 28.8891 22.7087 27.7187 21.0537 27.1796C21.6746 26.7464 22.1411 26.1265 22.3852 25.4102C22.6294 24.6939 22.6386 23.9184 22.4115 23.1965C22.1843 22.4746 21.7327 21.8439 21.1222 21.396C20.5117 20.9482 19.7742 20.7065 19.0168 20.7062C18.2595 20.7059 17.5218 20.9469 16.9109 21.3943C16.3 21.8416 15.8479 22.4719 15.6201 23.1936C15.3924 23.9154 15.4009 24.6908 15.6445 25.4074C15.8881 26.1239 16.354 26.7441 16.9746 27.1779C16.1539 27.4425 15.3937 27.8665 14.7377 28.4257C14.0816 28.9848 13.5427 29.6681 13.1519 30.4361C12.339 29.4911 11.7668 28.3636 11.4843 27.1498C11.2018 25.936 11.2172 24.6719 11.5294 23.4654C11.8415 22.2589 12.4411 21.1457 13.2769 20.2208C14.1127 19.2959 15.16 18.5866 16.3295 18.1536C17.499 17.7205 18.7559 17.5765 19.9932 17.7339C21.2304 17.8912 22.4112 18.3451 23.4348 19.057C24.4585 19.7689 25.2947 20.7176 25.872 21.8222C26.4494 22.9268 26.7508 24.1546 26.7506 25.4008L26.7509 25.4008Z" fill="#8B8787"/>
</svg>
