<svg width="34" height="39" viewBox="0 0 34 39" fill="none" xmlns="http://www.w3.org/2000/svg">
<path d="M17.2341 20.7694C17.1638 20.754 17.0913 20.7515 17.0201 20.762C16.3054 20.6789 15.7662 20.0741 15.7649 19.3548C15.7649 19.1892 15.6992 19.0305 15.5821 18.9134C15.465 18.7963 15.3063 18.7306 15.1407 18.7306C14.9751 18.7306 14.8164 18.7963 14.6993 18.9134C14.5822 19.0305 14.5165 19.1892 14.5165 19.3548C14.5183 20.556 15.3217 21.6082 16.48 21.9261V22.5503C16.48 22.7159 16.5457 22.8746 16.6628 22.9917C16.7799 23.1088 16.9387 23.1745 17.1042 23.1745C17.2698 23.1745 17.4285 23.1088 17.5456 22.9917C17.6627 22.8746 17.7284 22.7159 17.7284 22.5503V21.9638C19.0653 21.684 19.9739 20.4389 19.8334 19.0804C19.6926 17.722 18.5481 16.6896 17.1822 16.6893C16.3995 16.6893 15.7649 16.0547 15.7649 15.272C15.7649 14.4893 16.3995 13.8547 17.1822 13.8547C17.9649 13.8547 18.5996 14.4892 18.5996 15.272C18.5996 15.4376 18.6653 15.5963 18.7824 15.7134C18.8995 15.8305 19.0582 15.8962 19.2238 15.8962C19.3893 15.8962 19.5481 15.8305 19.6652 15.7134C19.7822 15.5963 19.848 15.4376 19.848 15.272C19.8462 14.0108 18.9626 12.9229 17.7284 12.6626V12.0944C17.7284 11.9289 17.6627 11.7701 17.5456 11.653C17.4285 11.536 17.2698 11.4702 17.1042 11.4702C16.9387 11.4702 16.7799 11.536 16.6628 11.653C16.5457 11.7701 16.48 11.9289 16.48 12.0944V12.7007C15.1919 13.0524 14.3628 14.303 14.5402 15.6265C14.7175 16.9499 15.8469 17.9377 17.1822 17.9375C17.9546 17.9375 18.5847 18.5559 18.5986 19.3279C18.613 20.1 18.0058 20.7413 17.2341 20.7694Z" fill="#8B8787"/>
<path d="M8.13013 17.3614C8.13013 22.3607 12.1828 26.4134 17.1821 26.4134C22.1814 26.4134 26.234 22.3607 26.234 17.3614C26.234 12.3621 22.1814 8.30945 17.1821 8.30945C12.1852 8.31491 8.13598 12.3645 8.13013 17.3614ZM17.1821 9.55791C21.4919 9.55791 24.9856 13.0516 24.9856 17.3614C24.9856 21.6712 21.4919 25.1649 17.1821 25.1649C12.8722 25.1649 9.37859 21.6712 9.37859 17.3614C9.3835 13.0537 12.8744 9.56282 17.1821 9.55791Z" fill="#8B8787"/>
<path d="M29.3113 27.9522L24.4214 30.2627C24.0897 29.6457 23.6011 29.1271 23.005 28.7592C22.4089 28.3914 21.7262 28.1872 21.026 28.1674L16.5119 28.0434C15.7969 28.0229 15.0958 27.8419 14.4603 27.5136L14.001 27.2757C12.8422 26.6717 11.5545 26.357 10.2478 26.3583C8.94105 26.3597 7.65403 26.6771 6.49651 27.2835L6.52515 26.2429C6.52742 26.161 6.51353 26.0794 6.48426 26.0028C6.455 25.9262 6.41093 25.8561 6.35458 25.7966C6.29823 25.737 6.2307 25.6892 6.15584 25.6557C6.08099 25.6223 6.00028 25.6039 5.91832 25.6016L0.968331 25.4655C0.886385 25.4632 0.804797 25.4771 0.728227 25.5064C0.651657 25.5357 0.581606 25.5797 0.522078 25.6361C0.46255 25.6925 0.414711 25.76 0.381294 25.8349C0.347878 25.9097 0.329539 25.9904 0.327325 26.0724L0.0283187 36.9347C0.026033 37.0166 0.0399201 37.0983 0.0691868 37.1749C0.0984535 37.2515 0.142526 37.3215 0.198887 37.3811C0.255247 37.4407 0.322792 37.4886 0.39766 37.522C0.472529 37.5555 0.553255 37.5738 0.635226 37.5761L5.58514 37.7123H5.60222C5.76487 37.7124 5.92113 37.6489 6.03771 37.5355C6.1543 37.4221 6.22202 37.2677 6.22645 37.1051L6.24073 36.5854L7.52665 35.8969C8.03119 35.6253 8.62163 35.5607 9.17298 35.7167L16.8521 37.872C16.8655 37.8759 16.8789 37.879 16.8927 37.8821C17.4477 37.9981 18.0132 38.0565 18.5803 38.0561C19.7812 38.0568 20.9681 37.7978 22.0596 37.2969C22.0864 37.2846 22.1123 37.2703 22.137 37.2541L33.2711 30.0524C33.4047 29.9659 33.5002 29.8317 33.5382 29.6772C33.5762 29.5226 33.5538 29.3594 33.4755 29.2208C32.6489 27.7541 30.8155 27.1954 29.3113 27.9522ZM1.29355 36.3452L1.55807 26.7306L5.25991 26.8324L4.99539 36.4474L1.29355 36.3452ZM21.4972 36.1819C20.1411 36.7938 18.6267 36.9629 17.1691 36.665L9.51068 34.5152C8.64895 34.2717 7.72629 34.3725 6.93753 34.7965L6.28037 35.1486L6.45625 28.756C7.47861 28.076 8.66471 27.6828 9.89082 27.6174C11.1169 27.552 12.3381 27.8168 13.427 28.3842L13.8864 28.6222C14.6891 29.0367 15.5747 29.2654 16.4777 29.2916L20.9921 29.4157C22.2601 29.4522 23.337 30.355 23.5942 31.5974L16.87 31.4117C16.5253 31.4024 16.2385 31.6742 16.2287 32.0186C16.2242 32.1841 16.2856 32.3447 16.3994 32.465C16.5132 32.5852 16.6701 32.6554 16.8356 32.6599L24.2562 32.8641H24.2736C24.4362 32.864 24.5923 32.8005 24.7087 32.6871C24.8252 32.5738 24.8928 32.4194 24.8973 32.2569C24.9049 31.9856 24.8847 31.7143 24.8369 31.4471L29.8524 29.0773C29.8573 29.0751 29.8621 29.0727 29.8671 29.0702C30.2144 28.8945 30.6072 28.8292 30.9928 28.8832C31.3783 28.9372 31.7381 29.1079 32.0238 29.3724L21.4972 36.1819ZM17.8064 6.55441V0.62423C17.8064 0.458674 17.7406 0.299899 17.6236 0.182833C17.5065 0.0657669 17.3477 0 17.1822 0C17.0166 0 16.8578 0.0657669 16.7408 0.182833C16.6237 0.299899 16.5579 0.458674 16.5579 0.62423V6.55441C16.5579 6.71997 16.6237 6.87875 16.7408 6.99581C16.8578 7.11288 17.0166 7.17864 17.1822 7.17864C17.3477 7.17864 17.5065 7.11288 17.6236 6.99581C17.7406 6.87875 17.8064 6.71997 17.8064 6.55441ZM22.4881 6.55441V3.74538C22.4881 3.57982 22.4223 3.42105 22.3053 3.30398C22.1882 3.18692 22.0294 3.12115 21.8639 3.12115C21.6983 3.12115 21.5396 3.18692 21.4225 3.30398C21.3054 3.42105 21.2397 3.57982 21.2397 3.74538V6.55441C21.2397 6.71997 21.3054 6.87875 21.4225 6.99581C21.5396 7.11288 21.6983 7.17864 21.8639 7.17864C22.0294 7.17864 22.1882 7.11288 22.3053 6.99581C22.4223 6.87875 22.4881 6.71997 22.4881 6.55441ZM13.1247 6.55441V3.74538C13.1247 3.57982 13.0589 3.42105 12.9418 3.30398C12.8248 3.18692 12.666 3.12115 12.5004 3.12115C12.3349 3.12115 12.1761 3.18692 12.059 3.30398C11.942 3.42105 11.8762 3.57982 11.8762 3.74538V6.55441C11.8762 6.71997 11.942 6.87875 12.059 6.99581C12.1761 7.11288 12.3349 7.17864 12.5004 7.17864C12.666 7.17864 12.8248 7.11288 12.9418 6.99581C13.0589 6.87875 13.1247 6.71997 13.1247 6.55441Z" fill="#8B8787"/>
</svg>
