<svg width="38" height="38" viewBox="0 0 38 38" fill="none" xmlns="http://www.w3.org/2000/svg">
<g clip-path="url(#clip0_7_497)">
<path d="M0.743653 13.4629V10.5211C0.743653 8.72177 2.2023 7.26312 4.00161 7.26312H7.36086C9.16017 7.26312 10.6188 8.72177 10.6188 10.5211V13.4629C10.619 13.6069 10.5774 13.7477 10.499 13.8684C10.4205 13.9891 10.3087 14.0844 10.1771 14.1427C9.20761 14.5706 7.62418 15.1025 5.62401 15.0922C3.68088 15.0822 2.14103 14.5646 1.18515 14.1426C1.05359 14.0843 0.941813 13.989 0.863427 13.8684C0.785042 13.7477 0.743428 13.6068 0.743653 13.4629Z" stroke="#8B8787" stroke-width="1.48728" stroke-miterlimit="10" stroke-linecap="round" stroke-linejoin="round"/>
<path d="M5.68127 7.16186C7.45361 7.16186 8.89038 5.72509 8.89038 3.95276C8.89038 2.18042 7.45361 0.743652 5.68127 0.743652C3.90893 0.743652 2.47217 2.18042 2.47217 3.95276C2.47217 5.72509 3.90893 7.16186 5.68127 7.16186Z" stroke="#8B8787" stroke-width="1.48728" stroke-miterlimit="10" stroke-linecap="round" stroke-linejoin="round"/>
<path d="M27.3813 13.4629V10.5211C27.3813 8.72177 28.84 7.26312 30.6393 7.26312H33.9986C35.7979 7.26312 37.2565 8.72177 37.2565 10.5211V13.4629C37.2567 13.6069 37.2151 13.7477 37.1367 13.8684C37.0582 13.9891 36.9464 14.0844 36.8148 14.1427C35.8453 14.5706 34.2619 15.1025 32.2617 15.0922C30.3186 15.0822 28.7787 14.5646 27.8228 14.1426C27.6913 14.0843 27.5795 13.989 27.5011 13.8684C27.4227 13.7477 27.3811 13.6068 27.3813 13.4629Z" stroke="#8B8787" stroke-width="1.48728" stroke-miterlimit="10" stroke-linecap="round" stroke-linejoin="round"/>
<path d="M32.3187 7.16186C34.0911 7.16186 35.5278 5.72509 35.5278 3.95276C35.5278 2.18042 34.0911 0.743652 32.3187 0.743652C30.5464 0.743652 29.1096 2.18042 29.1096 3.95276C29.1096 5.72509 30.5464 7.16186 32.3187 7.16186Z" stroke="#8B8787" stroke-width="1.48728" stroke-miterlimit="10" stroke-linecap="round" stroke-linejoin="round"/>
<path d="M0.743653 35.627V32.6851C0.743653 30.8858 2.2023 29.4272 4.00161 29.4272H7.36086C9.16017 29.4272 10.6188 30.8858 10.6188 32.6851V35.627C10.619 35.7709 10.5774 35.9118 10.499 36.0325C10.4205 36.1532 10.3087 36.2485 10.1771 36.3067C9.20761 36.7346 7.62418 37.2666 5.62401 37.2563C3.68088 37.2463 2.14103 36.7287 1.18515 36.3067C1.0536 36.2484 0.941835 36.1531 0.863451 36.0324C0.785068 35.9117 0.743447 35.7709 0.743653 35.627Z" stroke="#8B8787" stroke-width="1.48728" stroke-miterlimit="10" stroke-linecap="round" stroke-linejoin="round"/>
<path d="M5.68127 29.3259C7.45361 29.3259 8.89038 27.8892 8.89038 26.1168C8.89038 24.3445 7.45361 22.9077 5.68127 22.9077C3.90893 22.9077 2.47217 24.3445 2.47217 26.1168C2.47217 27.8892 3.90893 29.3259 5.68127 29.3259Z" stroke="#8B8787" stroke-width="1.48728" stroke-miterlimit="10" stroke-linecap="round" stroke-linejoin="round"/>
<path d="M27.3813 35.627V32.6851C27.3813 30.8858 28.84 29.4272 30.6393 29.4272H33.9986C35.7979 29.4272 37.2565 30.8858 37.2565 32.6851V35.627C37.2567 35.7709 37.2151 35.9118 37.1367 36.0325C37.0582 36.1532 36.9464 36.2485 36.8148 36.3067C35.8453 36.7346 34.2619 37.2666 32.2617 37.2563C30.3186 37.2463 28.7787 36.7287 27.8228 36.3067C27.6913 36.2484 27.5795 36.1531 27.5011 36.0324C27.4228 35.9117 27.3811 35.7709 27.3813 35.627Z" stroke="#8B8787" stroke-width="1.48728" stroke-miterlimit="10" stroke-linecap="round" stroke-linejoin="round"/>
<path d="M32.3187 29.3259C34.0911 29.3259 35.5278 27.8892 35.5278 26.1168C35.5278 24.3445 34.0911 22.9077 32.3187 22.9077C30.5464 22.9077 29.1096 24.3445 29.1096 26.1168C29.1096 27.8892 30.5464 29.3259 32.3187 29.3259Z" stroke="#8B8787" stroke-width="1.48728" stroke-miterlimit="10" stroke-linecap="round" stroke-linejoin="round"/>
<path d="M15.618 33.7619H10.7772M27.2226 33.7619H22.3941M27.2226 11.6146H10.7772M5.68115 22.7522V15.2481M32.3188 22.7522V15.2481M24.425 23.2594C25.8784 21.806 25.9216 19.4767 24.555 17.971C23.7803 17.096 22.5506 16.6321 21.4448 16.7211C20.5541 16.783 19.6808 17.1533 19 17.8343C18.3313 17.1656 17.4771 16.7963 16.6032 16.7245C15.4828 16.6264 14.2654 17.0599 13.4449 17.971C12.0783 19.4767 12.1215 21.8061 13.5749 23.2594L18.6408 28.3253C18.688 28.3724 18.7439 28.4098 18.8056 28.4354C18.8672 28.4609 18.9333 28.474 19 28.474C19.0667 28.474 19.1327 28.4609 19.1944 28.4354C19.256 28.4098 19.312 28.3724 19.3591 28.3253L24.425 23.2594Z" stroke="#8B8787" stroke-width="1.48728" stroke-miterlimit="10" stroke-linecap="round" stroke-linejoin="round"/>
</g>
<defs>
<clipPath id="clip0_7_497">
<rect width="38" height="38" fill="white"/>
</clipPath>
</defs>
</svg>
