<svg width="29" height="29" viewBox="0 0 29 29" fill="none" xmlns="http://www.w3.org/2000/svg">
<g clip-path="url(#clip0_7_440)">
<path d="M21.9147 7.08885C21.6069 6.78101 21.108 6.78101 20.8001 7.08885L7.09237 20.7966C6.78464 21.1043 6.78464 21.6034 7.09237 21.9111C7.16547 21.9844 7.25232 22.0425 7.34795 22.0821C7.44358 22.1218 7.54609 22.1421 7.6496 22.1419C7.75311 22.1421 7.85562 22.1218 7.95125 22.0821C8.04687 22.0425 8.13373 21.9844 8.20683 21.9111L21.9146 8.20337C22.2224 7.89559 22.2224 7.39658 21.9147 7.08885Z" fill="#8B8787"/>
<path d="M24.7564 4.24696C22.0177 1.50822 18.3764 0 14.5034 0C10.6303 0 6.98901 1.50822 4.25038 4.24696C1.5117 6.9857 0.00341797 10.6269 0.00341797 14.5C0.00341797 18.3732 1.5117 22.0144 4.25038 24.7531C6.98901 27.4918 10.6303 29.0001 14.5034 29.0001C18.3765 29.0001 22.0178 27.4918 24.7565 24.7531C30.4099 19.0995 30.4099 9.90048 24.7564 4.24696ZM23.6419 23.6385C21.2009 26.0794 17.9555 27.4237 14.5034 27.4237C11.0513 27.4237 7.80593 26.0794 5.3649 23.6385C2.9238 21.1975 1.57961 17.952 1.57961 14.5C1.57961 11.048 2.92386 7.80246 5.36495 5.36148C7.80588 2.9205 11.0513 1.57619 14.5034 1.57619C17.9556 1.57619 21.2009 2.9205 23.6419 5.36148C28.6808 10.4004 28.6808 18.5995 23.6419 23.6385Z" fill="#8B8787"/>
<path d="M12.3025 8.50974C11.2578 7.46506 9.55793 7.46506 8.51325 8.50974C7.46857 9.55442 7.46857 11.2542 8.51325 12.299C9.03559 12.8213 9.72179 13.0825 10.4079 13.0825C11.094 13.0825 11.7802 12.8213 12.3025 12.299C13.3472 11.2543 13.3472 9.55453 12.3025 8.50974ZM11.1879 11.1844C10.7579 11.6145 10.0578 11.6145 9.62776 11.1844C9.19769 10.7543 9.19769 10.0544 9.62782 9.62425C9.73019 9.52175 9.85179 9.44048 9.98566 9.38512C10.1195 9.32975 10.263 9.30138 10.4079 9.30163C10.6904 9.30163 10.9729 9.40919 11.1879 9.62425C11.6181 10.0544 11.6181 10.7543 11.1879 11.1844ZM20.4938 16.701C19.4491 15.6563 17.7492 15.6563 16.7046 16.701C15.6599 17.7457 15.6599 19.4455 16.7046 20.4902C17.2269 21.0126 17.9131 21.2738 18.5992 21.2738C19.2853 21.2738 19.9715 21.0126 20.4938 20.4902C21.5385 19.4456 21.5385 17.7457 20.4938 16.701ZM19.3792 19.3757C18.9492 19.8059 18.2491 19.8059 17.8191 19.3757C17.3889 18.9456 17.3889 18.2457 17.8191 17.8156C17.9214 17.7131 18.043 17.6318 18.1769 17.5764C18.3108 17.5211 18.4543 17.4927 18.5991 17.4929C18.8817 17.4929 19.1642 17.6005 19.3792 17.8156C19.8094 18.2457 19.8094 18.9456 19.3792 19.3757Z" fill="#8B8787"/>
</g>
<defs>
<clipPath id="clip0_7_440">
<rect width="29" height="29" fill="white"/>
</clipPath>
</defs>
</svg>
