<svg width="38" height="38" viewBox="0 0 38 38" fill="none" xmlns="http://www.w3.org/2000/svg">
<g clip-path="url(#clip0_7_516)">
<path d="M27.8343 22.5814C27.79 22.076 27.5161 21.6347 27.0829 21.3705C26.8186 21.2091 26.5126 21.129 26.2031 21.1402C25.8936 21.1515 25.5942 21.2535 25.3423 21.4337L21.3095 24.3133L20.9745 21.1969C20.9259 20.7384 20.7092 20.3141 20.3662 20.006C20.0232 19.6979 19.5783 19.5278 19.1172 19.5285C18.189 19.5285 17.3933 20.222 17.2667 21.1416L16.6932 25.305L14.0787 21.7915C13.7308 21.3239 13.1544 21.0702 12.5743 21.1298C11.983 21.1904 11.4815 21.549 11.2329 22.089C10.9844 22.629 11.038 23.2431 11.3765 23.7318L15.7232 30.0084C15.6682 33.2195 14.1062 37.1955 14.0901 37.2361C14.0565 37.3207 14.0442 37.4123 14.0542 37.5028C14.0641 37.5933 14.0961 37.6801 14.1472 37.7554C14.1984 37.8307 14.2672 37.8924 14.3477 37.935C14.4282 37.9777 14.5179 38 14.6089 38H23.0647C23.1609 38 23.2555 37.9752 23.3393 37.9279C23.4231 37.8805 23.4932 37.8124 23.5429 37.7299C23.5926 37.6475 23.6201 37.5537 23.6227 37.4575C23.6254 37.3613 23.6032 37.266 23.5582 37.181C23.5379 37.143 21.5744 33.3716 21.7342 28.8162L27.3053 23.9047C27.6859 23.5691 27.8788 23.0869 27.8343 22.5814ZM26.5671 23.0674L20.8178 28.1361C20.762 28.1854 20.7166 28.2452 20.6842 28.3123C20.6519 28.3793 20.6333 28.4521 20.6295 28.5265C20.4405 32.2389 21.5706 35.437 22.1897 36.884H15.4092V36.8839C15.8967 35.4915 16.8411 32.4556 16.8411 29.8363C16.8411 29.7228 16.8064 29.6119 16.7418 29.5186L12.2942 23.0964C12.1336 22.8647 12.2076 22.6413 12.247 22.5559C12.2862 22.4706 12.4079 22.2691 12.6883 22.2403C12.7825 22.231 12.8776 22.2461 12.9643 22.2843C13.051 22.3224 13.1264 22.3823 13.1833 22.4581L16.6122 27.066C16.6784 27.155 16.7695 27.2222 16.8739 27.2592C16.9784 27.2962 17.0915 27.3012 17.1989 27.2736C17.3062 27.246 17.4029 27.1871 17.4767 27.1044C17.5504 27.0216 17.5978 26.9188 17.6129 26.809L18.3725 21.2941C18.4235 20.924 18.7437 20.6449 19.1172 20.6449C19.5022 20.6449 19.8235 20.9335 19.8647 21.3163L20.3018 25.3822C20.3122 25.4791 20.3479 25.5716 20.4051 25.6505C20.4624 25.7293 20.5393 25.7918 20.6282 25.8317C20.7172 25.8716 20.815 25.8876 20.912 25.8779C21.0089 25.8683 21.1017 25.8334 21.181 25.7768L25.9909 22.3423C26.0649 22.2894 26.1528 22.2594 26.2436 22.2561C26.3345 22.2528 26.4243 22.2763 26.5019 22.3237C26.629 22.4013 26.7094 22.5308 26.7224 22.6791C26.7354 22.8274 26.6788 22.9689 26.5671 23.0674Z" fill="#8B8787"/>
<path d="M36.39 16.1509C36.39 14.8579 35.9687 13.5917 35.1957 12.5401C35.5532 11.9773 35.7403 11.3375 35.7403 10.6661C35.7403 8.67554 34.0578 7.05615 31.9897 7.05615C31.9733 7.05615 31.9567 7.05623 31.9402 7.05645C31.1864 4.59535 28.8026 2.85573 26.0895 2.85573C25.527 2.85573 24.973 2.92898 24.4368 3.074C23.4059 1.19151 21.3759 0 19.1308 0C16.621 0 14.3902 1.50702 13.5202 3.72624C12.9835 3.60047 12.4342 3.53703 11.883 3.53721C8.77054 3.53721 6.03712 5.56324 5.22628 8.41013C3.41793 8.67628 2.05631 10.1696 2.05631 11.9733C2.05631 12.8901 2.42451 13.7712 3.06495 14.4337C2.1335 15.3918 1.61011 16.653 1.61011 17.9806C1.61011 20.3978 3.31447 22.4606 5.7188 23.0288C6.22846 25.997 8.78227 28.285 11.943 28.5377C12.2492 28.562 12.5193 28.3331 12.5438 28.0258C12.5556 27.8782 12.5083 27.732 12.4123 27.6194C12.3163 27.5067 12.1795 27.4368 12.0319 27.425C9.26187 27.2035 7.04977 25.1323 6.77197 22.5003C6.75908 22.3784 6.7064 22.264 6.62204 22.175C6.53769 22.086 6.42637 22.0272 6.30528 22.0078C4.23152 21.6754 2.72636 19.9817 2.72636 17.9806C2.72636 16.7754 3.28338 15.6372 4.25468 14.858C4.32202 14.8039 4.37589 14.735 4.41207 14.6565C4.44825 14.5781 4.46574 14.4924 4.46317 14.4061C4.4606 14.3198 4.43804 14.2352 4.39727 14.1591C4.3565 14.083 4.29862 14.0173 4.22818 13.9674C3.55732 13.4917 3.17257 12.7649 3.17257 11.9733C3.17257 10.6334 4.27984 9.54101 5.69327 9.48638C5.81708 9.4816 5.93578 9.43575 6.03067 9.35607C6.12555 9.27638 6.19122 9.16739 6.21733 9.04626C6.76581 6.50092 9.14854 4.65346 11.883 4.65346C12.5035 4.65318 13.1204 4.74849 13.712 4.93601C13.7833 4.95861 13.8585 4.96664 13.933 4.95963C14.0075 4.95261 14.0799 4.9307 14.1458 4.89519C14.2117 4.85967 14.2697 4.81125 14.3165 4.75281C14.3633 4.69438 14.3979 4.62712 14.4181 4.55505C14.9871 2.53035 16.9251 1.11625 19.1308 1.11625C21.1073 1.11625 22.8758 2.2377 23.6362 3.97332C23.693 4.10277 23.7967 4.20588 23.9264 4.26183C24.0562 4.31779 24.2024 4.32242 24.3355 4.27479C24.8967 4.07388 25.4869 3.97205 26.0895 3.97205C28.4505 3.97205 30.5037 5.5668 30.9715 7.76398C31.001 7.90223 31.0818 8.02415 31.1977 8.10514C31.3135 8.18613 31.4558 8.22017 31.5958 8.20039C31.7263 8.18185 31.8579 8.1725 31.9897 8.17241C33.4422 8.17241 34.624 9.29104 34.624 10.6661C34.624 11.2271 34.431 11.7573 34.0659 12.1995C33.9824 12.3006 33.9372 12.4279 33.9381 12.559C33.9391 12.69 33.9861 12.8166 34.0711 12.9165C34.8578 13.8416 35.2737 14.96 35.2737 16.1509C35.2737 18.5224 33.5857 20.5764 31.1688 21.146C31.0944 21.1635 31.0245 21.1961 30.9632 21.2418C30.902 21.2875 30.8507 21.3452 30.8127 21.4115C30.7747 21.4778 30.7507 21.5511 30.7422 21.6271C30.7337 21.703 30.7409 21.7799 30.7633 21.8529C31.2386 23.4014 30.6958 24.5957 30.1569 25.3249C29.2199 26.5927 27.544 27.4445 25.9869 27.4445C25.8264 27.4445 25.6645 27.437 25.5056 27.4222C25.3591 27.4102 25.2139 27.4564 25.1013 27.5509C24.9888 27.6453 24.918 27.7803 24.9043 27.9267C24.8907 28.073 24.9353 28.2187 25.0284 28.3324C25.1216 28.446 25.2558 28.5183 25.4019 28.5337C25.5952 28.5517 25.7919 28.5608 25.9868 28.5608C27.9103 28.5608 29.8995 27.5511 31.0545 25.9885C31.916 24.8229 32.2323 23.4535 31.9687 22.0804C34.5984 21.2257 36.39 18.8599 36.39 16.1509Z" fill="#8B8787"/>
</g>
<defs>
<clipPath id="clip0_7_516">
<rect width="38" height="38" fill="white"/>
</clipPath>
</defs>
</svg>
