<svg width="29" height="29" viewBox="0 0 29 29" fill="none" xmlns="http://www.w3.org/2000/svg">
<g clip-path="url(#clip0_7_453)">
<path d="M9.96875 11.7812C10.7753 11.7812 11.5638 11.5421 12.2344 11.094C12.9051 10.6459 13.4278 10.0089 13.7364 9.26376C14.0451 8.51858 14.1259 7.6986 13.9685 6.90752C13.8112 6.11644 13.4228 5.38979 12.8524 4.81946C12.2821 4.24912 11.5554 3.86072 10.7644 3.70336C9.97327 3.546 9.1533 3.62677 8.40812 3.93543C7.66294 4.24409 7.02602 4.7668 6.57791 5.43744C6.1298 6.10808 5.89062 6.89655 5.89062 7.70312C5.89182 8.78434 6.32187 9.82093 7.0864 10.5855C7.85094 11.35 8.88753 11.7801 9.96875 11.7812ZM7.08642 9.01719C7.47853 9.17696 7.88675 9.29394 8.30397 9.36609C8.37612 9.78331 8.4931 10.1915 8.65288 10.5836C7.96034 10.2654 7.40465 9.70972 7.08642 9.01719ZM8.18298 6.98402C8.16577 7.22281 8.15625 7.46297 8.15625 7.70312C8.15625 7.94328 8.16577 8.18344 8.18298 8.42042C7.27628 8.20927 6.79688 7.87531 6.79688 7.70312C6.79688 7.53094 7.27628 7.19698 8.18298 6.98583V6.98402ZM9.96875 4.53125C10.1409 4.53125 10.4749 5.01066 10.686 5.91736C10.4491 5.90014 10.2089 5.89062 9.96875 5.89062C9.72859 5.89062 9.48844 5.90014 9.25145 5.91736C9.46261 5.01066 9.79656 4.53125 9.96875 4.53125ZM9.96875 6.79688C10.2796 6.79688 10.566 6.81273 10.8333 6.83856C10.8891 7.41359 10.8891 7.99266 10.8333 8.56769C10.2583 8.62352 9.67921 8.62352 9.10419 8.56769C9.04836 7.99266 9.04836 7.41359 9.10419 6.83856C9.37153 6.81273 9.65791 6.79688 9.96875 6.79688ZM13.1406 7.70312C13.1406 7.87531 12.6612 8.20927 11.7545 8.42042C11.7717 8.18344 11.7812 7.94328 11.7812 7.70312C11.7812 7.46297 11.7717 7.22281 11.7545 6.98583C12.6612 7.19698 13.1406 7.53094 13.1406 7.70312ZM9.96875 10.875C9.79656 10.875 9.46261 10.3956 9.25145 9.48889C9.48844 9.50611 9.72859 9.51562 9.96875 9.51562C10.2089 9.51562 10.4491 9.50611 10.686 9.48889C10.4749 10.3956 10.1409 10.875 9.96875 10.875ZM11.2828 10.5855C11.4426 10.1933 11.5596 9.78513 11.6317 9.36791C12.0489 9.29575 12.4572 9.17877 12.8493 9.019C12.531 9.71153 11.9753 10.2672 11.2828 10.5855ZM12.8511 6.38906C12.459 6.22929 12.0508 6.11231 11.6335 6.04016C11.5614 5.62294 11.4444 5.21472 11.2846 4.82261C11.9772 5.14084 12.5329 5.69653 12.8511 6.38906ZM8.65469 4.8208C8.49492 5.21291 8.37794 5.62112 8.30578 6.03834C7.88856 6.1105 7.48035 6.22748 7.08823 6.38725C7.40646 5.69472 7.96215 5.13902 8.65469 4.8208ZM3.625 4.07812C3.625 3.95795 3.67274 3.84269 3.75772 3.75772C3.84269 3.67274 3.95795 3.625 4.07812 3.625H5.89062V2.71875H4.07812C3.7176 2.71875 3.37183 2.86197 3.1169 3.1169C2.86197 3.37183 2.71875 3.7176 2.71875 4.07812V5.89062H3.625V4.07812ZM3.625 20.3906V18.5781H2.71875V20.3906C2.71875 20.7512 2.86197 21.0969 3.1169 21.3518C3.37183 21.6068 3.7176 21.75 4.07812 21.75H5.89062V20.8438H4.07812C3.95795 20.8438 3.84269 20.796 3.75772 20.711C3.67274 20.6261 3.625 20.5108 3.625 20.3906ZM16.3125 4.07812V5.89062H17.2188V4.07812C17.2188 3.7176 17.0755 3.37183 16.8206 3.1169C16.5657 2.86197 16.2199 2.71875 15.8594 2.71875H14.0469V3.625H15.8594C15.9796 3.625 16.0948 3.67274 16.1798 3.75772C16.2648 3.84269 16.3125 3.95795 16.3125 4.07812Z" fill="#8B8787"/>
<path d="M25.2962 14.3283L19.0312 10.6167V2.26562C19.0312 1.9051 18.888 1.55933 18.6331 1.3044C18.3782 1.04947 18.0324 0.90625 17.6719 0.90625H2.26562C1.9051 0.90625 1.55933 1.04947 1.3044 1.3044C1.04947 1.55933 0.90625 1.9051 0.90625 2.26562V22.2031C0.90625 22.5637 1.04947 22.9094 1.3044 23.1643C1.55933 23.4193 1.9051 23.5625 2.26562 23.5625H14.9531V24.0156C14.9543 25.0968 15.3844 26.1334 16.1489 26.898C16.9134 27.6625 17.95 28.0926 19.0312 28.0938H27.1875C27.4279 28.0938 27.6584 27.9983 27.8283 27.8283C27.9983 27.6584 28.0937 27.4279 28.0937 27.1875V19.3416C28.0969 18.3362 27.8411 17.3468 27.3512 16.4688C26.8612 15.5907 26.1535 14.8536 25.2962 14.3283ZM1.8125 22.2031V2.26562C1.8125 2.14545 1.86024 2.03019 1.94522 1.94522C2.03019 1.86024 2.14545 1.8125 2.26562 1.8125H17.6719C17.792 1.8125 17.9073 1.86024 17.9923 1.94522C18.0773 2.03019 18.125 2.14545 18.125 2.26562V19.3634L14.766 16.0914C14.3443 15.6631 13.7698 15.4198 13.1688 15.4151C12.5678 15.4104 11.9896 15.6446 11.5613 16.0662C11.1329 16.4879 10.8897 17.0624 10.885 17.6634C10.8802 18.2644 11.1145 18.8426 11.5361 19.271L14.4243 22.6562H2.26562C2.14545 22.6562 2.03019 22.6085 1.94522 22.5235C1.86024 22.4386 1.8125 22.3233 1.8125 22.2031ZM27.1875 27.1875H19.0312C18.1903 27.1864 17.3842 26.8519 16.7896 26.2573C16.195 25.6627 15.8605 24.8565 15.8594 24.0156V23.1094C15.8594 23.0016 15.821 22.8973 15.7511 22.8153L12.2013 18.6565C11.9467 18.4012 11.8037 18.0553 11.8037 17.6948C11.8037 17.3342 11.9467 16.9883 12.2013 16.733C12.461 16.4846 12.8067 16.3463 13.1661 16.347C13.5255 16.3478 13.8707 16.4876 14.1293 16.7371L20.0734 22.528L20.7078 21.8782L19.0312 20.247V11.6702L24.8267 15.1036C25.5507 15.5482 26.1481 16.1715 26.5615 16.9138C26.975 17.656 27.1905 18.4921 27.1875 19.3416V27.1875Z" fill="#8B8787"/>
<path d="M23.9445 15.6922L23.4673 16.4625C24.1914 16.9071 24.7888 17.5306 25.2023 18.2729C25.6157 19.0152 25.8312 19.8514 25.8281 20.701H26.7344C26.7378 19.697 26.483 18.7089 25.9944 17.8318C25.5059 16.9546 24.7999 16.2178 23.9445 15.6922ZM4.98438 12.6875H5.89062V13.5938H4.98438V12.6875ZM6.79688 12.6875H13.1406V13.5938H6.79688V12.6875ZM14.0469 12.6875H14.9531V13.5938H14.0469V12.6875Z" fill="#8B8787"/>
</g>
<defs>
<clipPath id="clip0_7_453">
<rect width="29" height="29" fill="white"/>
</clipPath>
</defs>
</svg>
