<svg width="38" height="38" viewBox="0 0 38 38" fill="none" xmlns="http://www.w3.org/2000/svg">
<g clip-path="url(#clip0_7_531)">
<path d="M34.9355 17.7742H24.3586C24.0909 16.1727 23.4717 14.6503 22.5456 13.3165C21.6195 11.9828 20.4095 10.8707 19.0025 10.0602C19.2848 9.9692 19.5644 9.86987 19.8409 9.76232L20.2258 9.60848V6.12903H21.4516V10.4194H22.6774V3.67742C22.6774 3.00139 22.1276 2.45161 21.4516 2.45161H15.9355C15.9355 1.09955 14.8359 0 13.4839 0C12.1318 0 11.0323 1.09955 11.0323 2.45161H5.51613C4.8401 2.45161 4.29032 3.00139 4.29032 3.67742V4.90323C4.29032 5.57926 4.8401 6.12903 5.51613 6.12903H6.74194V7.942C4.69262 9.12438 2.99068 10.8254 1.80721 12.8741C0.623742 14.9228 0.000452683 17.247 0 19.6129C0 26.4241 5.07729 32.0683 11.6452 32.9681V34.3226H9.80645C8.79271 34.3226 7.96774 35.1475 7.96774 36.1613V38H19V36.1613C19 35.1475 18.175 34.3226 17.1613 34.3226H15.3226V32.9668C16.9276 32.7484 18.48 32.2422 19.9053 31.4726L20.2258 31.2979V28.3241C21.7255 27.1684 22.902 25.6456 23.6415 23.9026H34.9355C36.6253 23.9026 38 22.5279 38 20.8381C38 19.1483 36.6253 17.7742 34.9355 17.7742ZM20.8387 22.2986L18.5967 21.1776C18.5333 21.1465 18.48 21.0983 18.4426 21.0384C18.4053 20.9785 18.3855 20.9093 18.3855 20.8387C18.3855 20.7681 18.4053 20.6989 18.4426 20.639C18.48 20.5791 18.5333 20.5309 18.5967 20.4998L20.8387 19.3788V22.2986ZM22.0645 21.4516H31.871V22.6774H22.0645V21.4516ZM31.871 20.2258H22.0645V19H31.871V20.2258ZM23.1181 17.7742H21.307L18.0482 19.4039C17.939 19.4618 17.8368 19.5319 17.7435 19.6129H16.9909C16.931 19.6131 16.8716 19.6014 16.8163 19.5785C16.7609 19.5555 16.7107 19.5218 16.6685 19.4793L16.0685 18.8793C15.9128 18.7227 15.7275 18.5987 15.5236 18.5142C15.3196 18.4297 15.1009 18.3865 14.8801 18.3871H14.5528C14.4318 18.3871 14.3159 18.3391 14.2303 18.2535C14.1448 18.168 14.0968 18.052 14.0968 17.9311V17.7331C14.0968 17.5805 14.1728 17.4389 14.2996 17.3537L15.1865 16.7623C15.4171 16.6091 15.6062 16.4012 15.7369 16.1571C15.8676 15.9131 15.9358 15.6405 15.9355 15.3636V14.0557C15.9355 13.9031 16.0115 13.7615 16.1384 13.6763L17.0252 13.0849C17.2558 12.9317 17.4449 12.7238 17.5756 12.4797C17.7063 12.2357 17.7745 11.9631 17.7742 11.6862V10.7951C19.1479 11.4605 20.3467 12.4383 21.2747 13.6502C22.2027 14.8621 22.834 16.2745 23.1181 17.7742ZM13.4839 1.22581C14.1599 1.22581 14.7097 1.77558 14.7097 2.45161H12.2581C12.2581 1.77558 12.8078 1.22581 13.4839 1.22581ZM5.51613 3.67742H21.4516L21.4522 4.29032L21.4516 4.90323H5.51613V3.67742ZM19 6.12903V8.76574C18.1021 9.07894 15.7737 9.80645 13.4839 9.80645C11.1941 9.80645 8.86565 9.07894 7.96774 8.76574V6.12903H19ZM8.62845 15.5622L9.14574 16.5968C9.1771 16.6603 9.19346 16.7301 9.19355 16.8009V17.9317C9.19355 18.183 8.98945 18.3871 8.73755 18.3871C8.38452 18.3867 8.04035 18.4976 7.75395 18.7041C7.46755 18.9105 7.25348 19.2019 7.14216 19.5369L7.01652 19.9138C6.98667 20.0047 6.92886 20.0838 6.85137 20.1398C6.77388 20.1958 6.68066 20.2259 6.58503 20.2258H6.13639C6.05604 20.2256 5.97717 20.2042 5.90768 20.1638C5.83819 20.1235 5.78052 20.0656 5.74045 19.996L4.03106 17.0044C4.81558 14.1256 6.87739 11.7371 9.73168 10.5548C10.2048 10.6664 10.7203 10.7699 11.2627 10.8527L10.6357 12.7337C10.6116 12.8064 10.5696 12.8718 10.5134 12.9239C10.4573 12.976 10.3889 13.013 10.3145 13.0315L9.72371 13.1793C9.4791 13.2397 9.25131 13.3547 9.0574 13.5156C8.86349 13.6765 8.70847 13.8792 8.60394 14.1084C8.49839 14.337 8.44578 14.5864 8.45002 14.8381C8.45427 15.0898 8.51526 15.3374 8.62845 15.5622ZM17.1613 35.5484C17.499 35.5484 17.7742 35.823 17.7742 36.1613V36.7742H9.19355V36.1613C9.19355 35.823 9.46874 35.5484 9.80645 35.5484H15.3226H17.1613ZM14.0968 34.3226H12.871V33.0815C13.0745 33.0906 13.2785 33.0968 13.4839 33.0968C13.6886 33.0968 13.8927 33.087 14.0968 33.0778V34.3226ZM19 30.5624C17.2886 31.423 15.3995 31.8711 13.4839 31.871C6.72477 31.871 1.22581 26.372 1.22581 19.6129C1.22605 17.5839 1.73021 15.5866 2.693 13.8005C3.65579 12.0145 5.04707 10.4954 6.74194 9.37987V9.60848L7.12684 9.76232C7.16545 9.77765 7.4719 9.89839 7.95977 10.0584C4.56797 12.008 2.45161 15.6033 2.45161 19.6129C2.45161 25.696 7.40081 30.6452 13.4839 30.6452C15.4219 30.6422 17.3248 30.1274 19 29.1527V30.5624ZM13.4839 29.4194C9.61645 29.4194 6.2749 27.1633 4.67952 23.9032H8.75103C9.20029 23.9032 9.62258 23.7285 9.94007 23.4105L10.5401 22.8104C10.5823 22.7681 10.6324 22.7345 10.6877 22.7117C10.7429 22.6888 10.8021 22.6772 10.8619 22.6774H11.6862C11.8395 22.6774 11.9804 22.7534 12.0656 22.8803L12.6565 23.7672C12.8098 23.9978 13.0178 24.1868 13.2619 24.3175C13.5061 24.4482 13.7788 24.5164 14.0557 24.5161H15.3636C15.5169 24.5161 15.6578 24.5921 15.743 24.719L16.3339 25.6059C16.4872 25.8365 16.6952 26.0255 16.9394 26.1562C17.1835 26.2869 17.4562 26.3551 17.7331 26.3548H20.5905C18.7696 28.2634 16.2119 29.4194 13.4839 29.4194ZM21.5877 25.129H17.7331C17.6581 25.1291 17.5842 25.1106 17.518 25.0752C17.4518 25.0398 17.3954 24.9886 17.3537 24.9262L16.7629 24.0393C16.6096 23.8087 16.4016 23.6196 16.1574 23.4889C15.9133 23.3583 15.6406 23.29 15.3636 23.2903H14.0557C13.9807 23.2904 13.9067 23.2719 13.8405 23.2365C13.7744 23.2011 13.7179 23.1499 13.6763 23.0875L13.0855 22.2006C12.9322 21.97 12.7241 21.7809 12.48 21.6502C12.2358 21.5195 11.9631 21.4513 11.6862 21.4516H10.8619C10.4126 21.4516 9.99032 21.6263 9.67284 21.9444L9.07281 22.5444C9.03064 22.5868 8.98048 22.6203 8.92525 22.6432C8.87002 22.666 8.8108 22.6776 8.75103 22.6774H4.17448C3.77133 21.4622 3.61139 20.1795 3.70377 18.9025L4.67584 20.604C4.82322 20.8612 5.03586 21.0751 5.2923 21.2239C5.54874 21.3727 5.83989 21.4513 6.13639 21.4516H6.58503C6.93806 21.452 7.28223 21.3411 7.56863 21.1347C7.85503 20.9282 8.0691 20.6368 8.18042 20.3018L8.30606 19.9249C8.33592 19.834 8.39372 19.7549 8.47121 19.6989C8.5487 19.6429 8.64192 19.6128 8.73755 19.6129C9.18344 19.6124 9.61093 19.4351 9.92623 19.1198C10.2415 18.8045 10.4189 18.377 10.4194 17.9311V16.8003C10.4194 16.5404 10.3581 16.2805 10.2416 16.0483L9.72432 15.0137C9.63913 14.8433 9.68387 14.6937 9.71758 14.6196C9.75129 14.5454 9.83648 14.4143 10.021 14.3677L10.6118 14.22C10.8865 14.152 11.1395 14.0155 11.3472 13.8233C11.5548 13.631 11.7102 13.3891 11.799 13.1204L12.5081 10.9924C12.8311 11.0163 13.1566 11.0323 13.4839 11.0323C14.5515 11.0323 15.6088 10.8907 16.5484 10.7037V11.6862C16.5484 11.8388 16.4724 11.9804 16.3455 12.0656L15.4586 12.6571C15.2281 12.8103 15.039 13.0182 14.9083 13.2622C14.7776 13.5063 14.7094 13.7789 14.7097 14.0557V15.3636C14.7097 15.5163 14.6337 15.6578 14.5068 15.743L13.6199 16.3345C13.3893 16.4877 13.2003 16.6956 13.0696 16.9396C12.9389 17.1837 12.8707 17.4563 12.871 17.7331V17.9311C12.8715 18.377 13.0488 18.8045 13.3641 19.1198C13.6794 19.4351 14.1069 19.6124 14.5528 19.6129H14.8801C15.002 19.6129 15.116 19.6601 15.2025 19.7465L15.8025 20.3465C15.9581 20.5032 16.1433 20.6273 16.3473 20.7118C16.5513 20.7963 16.7701 20.8394 16.9909 20.8387H17.1613C17.1613 21.4504 17.5015 22.0002 18.0482 22.2741L21.307 23.9032H22.2993C22.0921 24.3285 21.8543 24.7382 21.5877 25.129ZM34.9355 22.6774H33.0968V19H34.9355C35.9492 19 36.7742 19.825 36.7742 20.8387C36.7742 21.8525 35.9492 22.6774 34.9355 22.6774Z" fill="#8B8787"/>
</g>
<defs>
<clipPath id="clip0_7_531">
<rect width="38" height="38" fill="white"/>
</clipPath>
</defs>
</svg>
