<svg width="29" height="29" viewBox="0 0 29 29" fill="none" xmlns="http://www.w3.org/2000/svg">
<path d="M14.4832 4.22187e-10C13.9634 4.22187e-10 13.444 0.0279447 12.9271 0.0836526C12.4534 0.132042 11.9855 0.2114 11.5238 0.307694C11.4343 0.326449 11.3449 0.346128 11.2557 0.366729C8.53585 0.985993 6.05229 2.37663 4.10287 4.37189C3.92066 4.5587 3.74318 4.75006 3.57059 4.94579C-1.69535 10.9913 -1.06339 20.161 4.98216 25.4269C10.77 30.4684 19.4821 30.133 24.8652 24.6614C25.0476 24.4748 25.225 24.2834 25.3975 24.0875C27.7214 21.441 29.0021 18.0387 29 14.5167C29 6.49926 22.5006 -6.04859e-05 14.4832 4.22187e-10ZM4.7479 5.09773C4.82435 5.01837 4.90371 4.9424 4.98162 4.86546C5.07162 4.77691 5.16114 4.68787 5.25308 4.60222C5.33389 4.52674 5.41712 4.45415 5.49986 4.3806C5.59326 4.29786 5.68616 4.21511 5.78197 4.13527C5.86617 4.06414 5.95279 3.99591 6.03892 3.9272C6.1357 3.84977 6.23247 3.77235 6.33216 3.69783C6.42021 3.63175 6.50942 3.56722 6.59975 3.50428C6.69991 3.43266 6.80056 3.35911 6.90266 3.29233C6.99415 3.23067 7.08642 3.17018 7.17945 3.11087C7.28246 3.04446 7.38668 2.97993 7.49204 2.91732C7.69221 2.79782 7.89501 2.68279 8.10029 2.5723C8.19707 2.52071 8.29385 2.4702 8.39063 2.42085C8.50105 2.36535 8.61219 2.31131 8.72403 2.25874C8.82081 2.21277 8.92146 2.1668 9.02114 2.12325C9.13485 2.07486 9.25002 2.02647 9.36518 1.97809C9.46535 1.93695 9.56503 1.89679 9.66616 1.85808C9.78327 1.81356 9.90182 1.77195 10.0204 1.73033C10.1216 1.69457 10.2232 1.65989 10.3252 1.6263C10.4457 1.58759 10.5672 1.55178 10.6891 1.51645C10.7912 1.48694 10.8923 1.45645 10.9949 1.42887C11.0341 1.41871 11.0733 1.41048 11.1125 1.40032C9.68018 2.79111 8.61727 4.51712 8.01997 6.42214C6.87145 6.11923 5.75961 5.69134 4.70435 5.14612C4.72032 5.12918 4.73386 5.11225 4.7479 5.09773ZM4.05206 5.87679C5.21443 6.5066 6.44703 6.9971 7.72431 7.33814C7.09814 9.5154 6.7695 11.7674 6.74733 14.0328H0.945483C1.05089 11.0454 2.14337 8.17726 4.05206 5.87679ZM4.05206 23.1565C2.14348 20.856 1.05102 17.9879 0.945483 15.0006H6.74733C6.76946 17.266 7.09811 19.5179 7.72431 21.6952C6.44706 22.0363 5.21448 22.5268 4.05206 23.1565ZM10.992 27.6064C10.8943 27.5817 10.7931 27.5498 10.6925 27.5203C10.5701 27.4845 10.4472 27.4486 10.3262 27.4095C10.2241 27.3765 10.1234 27.3412 10.0228 27.3059C9.90355 27.2651 9.78498 27.2224 9.66713 27.1777C9.56681 27.1392 9.46696 27.0995 9.3676 27.0586C9.25195 27.0102 9.1363 26.9619 9.02162 26.9135C8.92282 26.8699 8.82458 26.825 8.72693 26.7789C8.61419 26.7257 8.50192 26.6715 8.38821 26.6154C8.29143 26.567 8.19465 26.5186 8.09787 26.4659C7.98851 26.4073 7.88012 26.3473 7.77173 26.2854C7.67495 26.2317 7.58301 26.1765 7.48962 26.1204C7.38343 26.0564 7.27825 25.9907 7.17413 25.9234C7.08219 25.8649 6.99025 25.8054 6.89976 25.7444C6.79666 25.6742 6.69455 25.6026 6.59346 25.5295C6.50491 25.4661 6.41635 25.4028 6.32925 25.336C6.22938 25.2602 6.13066 25.1829 6.03311 25.1042C5.94746 25.036 5.8623 24.9682 5.77859 24.8981C5.68181 24.8177 5.58842 24.734 5.49454 24.6508C5.41228 24.5777 5.32953 24.5056 5.24921 24.4311C5.15679 24.345 5.06727 24.2554 4.97726 24.1669C4.89936 24.09 4.82 24.014 4.74354 23.9351C4.72951 23.9201 4.71596 23.9046 4.70193 23.8901C5.75713 23.3446 6.86899 22.9166 8.01755 22.6136C8.61496 24.5186 9.67786 26.2446 11.1101 27.6354C11.0709 27.6253 11.0312 27.617 10.992 27.6064ZM13.9994 28.0274C11.9288 27.7332 10.1138 25.5721 8.97178 22.3809C10.6228 22.0112 12.3076 21.8128 13.9994 21.7891V28.0274ZM13.9994 20.8213C12.2048 20.8449 10.4177 21.058 8.6679 21.4571C8.06031 19.3578 7.7398 17.1859 7.71512 15.0006H13.9994V20.8213ZM13.9994 14.0328H7.71512C7.73974 11.8474 8.06025 9.67551 8.6679 7.57622C10.4177 7.97526 12.2048 8.18839 13.9994 8.21205V14.0328ZM13.9994 7.24427C12.3076 7.22067 10.6228 7.02235 8.97178 6.65247C10.1138 3.46121 11.9288 1.30015 13.9994 1.00595V7.24427ZM24.9145 5.87679C26.8231 8.17733 27.9156 11.0455 28.0211 14.0328H22.2193C22.1971 11.7674 21.8685 9.51539 21.2423 7.33814C22.5195 6.99695 23.7521 6.50645 24.9145 5.87679ZM17.9707 1.42645C18.0723 1.45161 18.1734 1.48355 18.2741 1.51307C18.3965 1.54887 18.5194 1.58468 18.6404 1.62388C18.7425 1.65678 18.8432 1.69211 18.9438 1.72743C19.0628 1.76856 19.1819 1.81066 19.2995 1.85566C19.4001 1.89389 19.4993 1.93405 19.599 1.9747C19.7146 2.02309 19.8303 2.07148 19.945 2.11987C20.0437 2.16342 20.1419 2.20824 20.2397 2.25439C20.3524 2.30761 20.4647 2.36181 20.5784 2.41794C20.6752 2.46633 20.7719 2.51472 20.8687 2.56746C20.9781 2.62601 21.0865 2.68602 21.1949 2.74796C21.2916 2.80167 21.3836 2.85683 21.477 2.91296C21.5832 2.97695 21.6883 3.04261 21.7925 3.10991C21.8844 3.16846 21.9763 3.22798 22.0668 3.28895C22.1698 3.35897 22.2717 3.43043 22.3727 3.50331C22.462 3.56653 22.5504 3.63106 22.6378 3.69687C22.7375 3.77187 22.8353 3.84977 22.9335 3.92816C23.0186 3.99591 23.1043 4.06365 23.188 4.1343C23.2848 4.21463 23.3782 4.29834 23.4721 4.38157C23.5543 4.45464 23.6371 4.52674 23.7174 4.60126C23.8098 4.68739 23.8993 4.77691 23.9893 4.86546C24.0672 4.9424 24.1466 5.01837 24.2231 5.09725C24.2371 5.11225 24.2506 5.12773 24.2647 5.14225C23.2095 5.68772 22.0976 6.11578 20.949 6.41875C20.3505 4.51355 19.2862 2.7877 17.8526 1.39742C17.8918 1.40758 17.9315 1.4158 17.9707 1.42645ZM14.9672 1.00595C17.0378 1.30015 18.8528 3.46121 19.9948 6.65247C18.3438 7.02217 16.659 7.22049 14.9672 7.24427V1.00595ZM14.9672 8.21205C16.7618 8.18845 18.5489 7.97532 20.2987 7.57622C20.9063 9.67553 21.2268 11.8474 21.2515 14.0328H14.9672V8.21205ZM14.9672 15.0006H21.2515C21.2269 17.1859 20.9063 19.3578 20.2987 21.4571C18.5489 21.0581 16.7618 20.8449 14.9672 20.8213V15.0006ZM14.9672 28.0274V21.7891C16.659 21.8126 18.3438 22.011 19.9948 22.3809C18.8528 25.5721 17.0378 27.7332 14.9672 28.0274ZM24.2187 23.9356C24.1422 24.0145 24.0634 24.0904 23.9855 24.1674C23.8955 24.2559 23.8055 24.3455 23.713 24.4316C23.6327 24.5066 23.55 24.5768 23.4677 24.6518C23.3738 24.735 23.2804 24.8182 23.1846 24.8985C23.0999 24.9692 23.0138 25.0374 22.9277 25.1061C22.8309 25.1836 22.7341 25.261 22.6344 25.3355C22.5464 25.4016 22.4572 25.4661 22.3668 25.529C22.2667 25.6007 22.166 25.6742 22.0639 25.741C21.9726 25.8027 21.8803 25.863 21.7871 25.922C21.684 25.9885 21.5797 26.053 21.4741 26.1155C21.3773 26.1721 21.2849 26.2273 21.1895 26.282C20.9877 26.3969 20.7831 26.507 20.576 26.612C20.4655 26.6675 20.3544 26.7215 20.2426 26.7741C20.1458 26.8201 20.0451 26.866 19.9455 26.9096C19.8317 26.958 19.7166 27.0064 19.6014 27.0548C19.5012 27.0954 19.4016 27.1361 19.3009 27.1743C19.1828 27.2193 19.0643 27.2614 18.9453 27.3025C18.8446 27.3383 18.7434 27.3729 18.6419 27.4061C18.5209 27.4453 18.3999 27.4811 18.2765 27.5164C18.1754 27.5464 18.0738 27.5764 17.9717 27.604C17.9325 27.6141 17.8933 27.6224 17.8541 27.6325C19.2864 26.2417 20.3493 24.5157 20.9466 22.6107C22.0951 22.9136 23.207 23.3415 24.2622 23.8867C24.2463 23.9041 24.2327 23.9211 24.2187 23.9356ZM24.9145 23.1565C23.7522 22.5267 22.5196 22.0362 21.2423 21.6952C21.8685 19.5179 22.1971 17.266 22.2193 15.0006H28.0211C27.9157 17.9879 26.8232 20.8561 24.9145 23.1565Z" fill="#8B8787"/>
</svg>
